<?xml version="1.0" encoding="UTF-8"?>
<!DOCTYPE svg PUBLIC "-//W3C//DTD SVG 1.1//EN" "http://www.w3.org/Graphics/SVG/1.1/DTD/svg11.dtd">
<svg xmlns="http://www.w3.org/2000/svg" version="1.1" width="500px" height="500px" style="shape-rendering:geometricPrecision; text-rendering:geometricPrecision; image-rendering:optimizeQuality; fill-rule:evenodd; clip-rule:evenodd" xmlns:xlink="http://www.w3.org/1999/xlink">
<g><path style="opacity:0.005" fill="#0788ff" d="M 244.5,13.5 C 243.833,13.5 243.5,13.8333 243.5,14.5C 242.833,14.5 242.167,14.5 241.5,14.5C 242.221,12.6182 243.221,12.2848 244.5,13.5 Z"/></g>
<g><path style="opacity:0.972" fill="#12b8e6" d="M 273.5,23.5 C 274.172,24.2674 275.005,24.9341 276,25.5C 276.399,25.2716 276.565,24.9382 276.5,24.5C 291.083,32.7296 306.083,41.2296 321.5,50C 324.166,51.8326 325.832,54.3326 326.5,57.5C 325.167,57.8333 325.167,58.1667 326.5,58.5C 326.918,59.2216 327.584,59.7216 328.5,60C 328.496,86.5297 328.496,113.03 328.5,139.5C 327.965,141.271 327.131,141.604 326,140.5C 326.145,144.455 324.311,147.622 320.5,150C 316.621,152.076 313.121,154.243 310,156.5C 305.495,158.187 300.995,160.687 296.5,164C 331.533,184.224 366.033,204.057 400,223.5C 400.5,224.5 401,225.5 401.5,226.5C 401.163,228.425 399.83,229.925 397.5,231C 391.235,233.758 385.401,237.258 380,241.5C 379.667,240.833 379.333,240.167 379,239.5C 378.535,240.931 377.701,242.097 376.5,243C 370.39,246.268 364.39,249.768 358.5,253.5C 357.749,252.624 357.249,251.624 357,250.5C 353.018,251.003 350.018,249.336 348,245.5C 345.512,246.412 343.845,245.412 343,242.5C 342.667,243.167 342.333,243.833 342,244.5C 326.478,234.868 311.312,225.534 296.5,216.5C 296.167,215.167 295.833,215.167 295.5,216.5C 287.43,212.502 280.097,208.168 273.5,203.5C 273.217,202.711 272.717,202.044 272,201.5C 271.167,275.836 271.333,350.169 272.5,424.5C 273.107,424.376 273.44,424.043 273.5,423.5C 301.641,406.878 329.141,390.878 356,375.5C 356.333,375.833 356.667,376.167 357,376.5C 357.333,350.833 357.667,325.167 358,299.5C 362.344,294.851 367.344,291.851 373,290.5C 375.258,287.701 377.925,286.368 381,286.5C 386.614,281.709 393.114,277.375 400.5,273.5C 401.167,274.167 401.833,274.833 402.5,275.5C 403.667,314.829 403.833,354.162 403,393.5C 402.346,392.304 401.846,392.304 401.5,393.5C 402.574,396.118 401.907,398.285 399.5,400C 399.833,400.333 400.167,400.667 400.5,401C 394.784,406.528 387.951,411.361 380,415.5C 379.667,415.167 379.333,414.833 379,414.5C 372.44,419.39 365.606,423.89 358.5,428C 357.551,428.617 356.718,428.451 356,427.5C 354.303,430.463 351.803,432.463 348.5,433.5C 340.706,438.253 332.373,442.919 323.5,447.5C 323.167,446.167 322.833,446.167 322.5,447.5C 321.167,448.933 319.667,450.267 318,451.5C 307.062,456.982 295.396,463.649 283,471.5C 282.667,471.167 282.333,470.833 282,470.5C 274.398,476.386 266.231,481.386 257.5,485.5C 257.167,484.167 256.833,484.167 256.5,485.5C 255.778,485.918 255.278,486.584 255,487.5C 251.667,487.5 248.333,487.5 245,487.5C 244.722,486.584 244.222,485.918 243.5,485.5C 243.167,484.167 242.833,484.167 242.5,485.5C 218.473,472.381 194.306,458.714 170,444.5C 149.823,432.92 128.656,420.754 106.5,408C 102.974,405.974 100.307,403.141 98.5,399.5C 98.7093,398.914 99.0426,398.414 99.5,398C 98.3333,397.5 97.5,396.667 97,395.5C 96.3333,355.5 96.3333,315.5 97,275.5C 97.6667,274.833 98.3333,274.167 99,273.5C 113.301,281.638 127.301,289.971 141,298.5C 141.333,324.5 141.667,350.5 142,376.5C 142.333,375.833 142.667,375.167 143,374.5C 167.712,389.64 191.712,403.64 215,416.5C 219.078,418.989 222.745,421.323 226,423.5C 226.667,350.5 226.667,277.5 226,204.5C 220.335,207.483 214.835,210.483 209.5,213.5C 209.167,212.167 208.833,212.167 208.5,213.5C 196.02,221.701 182.854,229.701 169,237.5C 160.274,242.247 150.94,247.58 141,253.5C 128.786,246.075 115.619,238.409 101.5,230.5C 100.614,229.675 100.281,228.675 100.5,227.5C 98.8967,227.688 97.5634,227.188 96.5,226C 127.801,207.68 159.134,189.347 190.5,171C 191.449,170.383 192.282,170.549 193,171.5C 195.702,168.299 198.869,165.632 202.5,163.5C 195.268,159.182 187.601,154.682 179.5,150C 176.336,147.079 173.669,143.746 171.5,140C 171.851,126.707 171.851,113.207 171.5,99.5C 171.518,86.0123 172.185,72.679 173.5,59.5C 173.376,58.8933 173.043,58.56 172.5,58.5C 174.448,54.17 177.448,50.67 181.5,48C 187.458,45.3545 193.124,42.1878 198.5,38.5C 199.086,38.7093 199.586,39.0426 200,39.5C 200.845,36.5878 202.512,35.5878 205,36.5C 205.465,35.0692 206.299,33.9025 207.5,33C 219.485,26.2076 230.818,20.041 241.5,14.5C 242.167,14.5 242.833,14.5 243.5,14.5C 244.167,14.5 244.5,14.1667 244.5,13.5C 245.151,12.9094 245.818,12.2427 246.5,11.5C 248.833,12.8333 251.167,12.8333 253.5,11.5C 254.345,13.7619 255.678,14.4286 257.5,13.5C 260.803,14.5368 263.303,16.5368 265,19.5C 267.091,18.5004 268.757,19.1671 270,21.5C 271.579,20.828 272.746,21.4947 273.5,23.5 Z M 269.5,73.5 C 270.965,74.7368 272.632,75.7368 274.5,76.5C 275.965,77.7368 277.632,78.7368 279.5,79.5C 280.209,80.404 281.209,80.7373 282.5,80.5C 282.5,93.1667 282.5,105.833 282.5,118.5C 280.632,119.263 278.965,120.263 277.5,121.5C 275.971,122.284 274.304,123.284 272.5,124.5C 270.181,124.992 268.181,125.992 266.5,127.5C 264.292,128.023 262.792,129.356 262,131.5C 261.667,131.167 261.333,130.833 261,130.5C 259.348,131.399 257.848,132.399 256.5,133.5C 254.449,135.64 252.282,136.973 250,137.5C 242.317,132.605 234.817,128.271 227.5,124.5C 226.035,123.263 224.368,122.263 222.5,121.5C 221.152,120.399 219.652,119.399 218,118.5C 217.167,105.82 217.334,93.1535 218.5,80.5C 223.652,77.9891 229.318,74.6558 235.5,70.5C 237.113,69.3077 238.78,68.3077 240.5,67.5C 242.674,67.2503 244.341,66.2503 245.5,64.5C 247.371,64.1412 248.871,63.1412 250,61.5C 251.097,63.0526 252.43,64.386 254,65.5C 254.333,64.8333 254.667,64.1667 255,63.5C 258.811,68.1682 263.645,71.5016 269.5,73.5 Z"/></g>
<g><path style="opacity:0.004" fill="#068aff" d="M 273.5,23.5 C 274.791,23.2627 275.791,23.596 276.5,24.5C 276.565,24.9382 276.399,25.2716 276,25.5C 275.005,24.9341 274.172,24.2674 273.5,23.5 Z"/></g>
<g><path style="opacity:0.008" fill="#00a9ff" d="M 326.5,57.5 C 327.833,58.1667 327.833,58.1667 326.5,57.5 Z"/></g>
<g><path style="opacity:0.004" fill="#00cbff" d="M 172.5,58.5 C 171.833,59.1667 171.833,59.1667 172.5,58.5 Z"/></g>
<g><path style="opacity:0.02" fill="#13b1eb" d="M 273.5,203.5 C 272.167,276.833 272.167,350.167 273.5,423.5C 273.44,424.043 273.107,424.376 272.5,424.5C 271.333,350.169 271.167,275.836 272,201.5C 272.717,202.044 273.217,202.711 273.5,203.5 Z"/></g>
<g><path style="opacity:0.008" fill="#00a9ff" d="M 208.5,213.5 C 208.833,213.5 209.167,213.5 209.5,213.5C 209.315,214.17 208.981,214.17 208.5,213.5 Z"/></g>
<g><path style="opacity:0.008" fill="#00bfff" d="M 295.5,216.5 C 295.833,216.5 296.167,216.5 296.5,216.5C 296.315,217.17 295.981,217.17 295.5,216.5 Z"/></g>
<g><path style="opacity:0.004" fill="#00a9ff" d="M 98.5,228.5 C 99.8333,229.167 99.8333,229.167 98.5,228.5 Z"/></g>
<g><path style="opacity:0.008" fill="#00a9ff" d="M 322.5,447.5 C 322.833,447.5 323.167,447.5 323.5,447.5C 323.315,448.17 322.981,448.17 322.5,447.5 Z"/></g>
<g><path style="opacity:0.004" fill="#007eff" d="M 242.5,485.5 C 242.833,485.5 243.167,485.5 243.5,485.5C 243.315,486.17 242.981,486.17 242.5,485.5 Z"/></g>
<g><path style="opacity:0.004" fill="#00beff" d="M 256.5,485.5 C 256.833,485.5 257.167,485.5 257.5,485.5C 257.315,486.17 256.981,486.17 256.5,485.5 Z"/></g>
</svg>
