<?xml version="1.0" standalone="yes"?>
<svg xmlns="http://www.w3.org/2000/svg" width="1530" height="410">
<path style="fill:#ffffff; stroke:none;" d="M0 0L0 410L1530 410L1530 0L0 0z"/>
<path style="fill:#56b8e1; stroke:none;" d="M111 140L111 142L80 159.15L27 190C33.8205 195.71 50.9696 208.118 60 208.335C66.1489 208.483 73.8417 201.653 79 198.719C95.2419 189.48 112.884 180.981 128 170L128 346L80 318.421L61.0278 305.895L60 292L60 262L59.3966 248.39L50 241.719L27 229L27 298C27 306.032 24.5685 318.914 29.0093 325.957C33.8008 333.556 46.4578 337.927 54 342.397C74.8444 354.749 95.9394 366.738 117 378.719C124.823 383.169 136.535 393.461 146 392.578C153.334 391.894 160.767 385.825 167 382.281C182.725 373.34 198.291 364.118 214 355.15C224.691 349.048 235.304 342.814 246 336.719C250.995 333.873 257.979 330.972 261.142 325.957C265.493 319.055 263 305.879 263 298L263 229C255.212 232.356 233.891 241.061 230.603 249.105C226.109 260.101 230 280.106 230 292C230 296.159 231.053 302.127 228.972 305.896C225.745 311.74 215.571 315.191 210 318.424C194.067 327.672 178.301 337.414 162 346L162 170C176.913 180.65 194.1 189.023 210 198.15C215.442 201.274 223.573 208.18 230 208.335C238.576 208.541 256.617 195.546 263 190L211 159.719L179 142L179 140C186.725 137.728 199.728 131.416 203.543 123.985C208.534 114.266 205 95.7899 205 85C205 77.1343 207.217 65.1698 203.543 58.0146C200.864 52.7962 194.871 50.0564 190 47.2809C178.156 40.5327 159.768 24.5323 146 24.0586C131.575 23.5623 112.213 40.4197 100 47.4213C95.1117 50.2238 89.1611 52.7477 86.4568 58.0146C82.783 65.1699 85 77.1343 85 85C85 95.7899 81.4663 114.266 86.4568 123.985C90.2481 131.37 103.369 137.585 111 140z"/>
<path style="fill:#ffffff; stroke:none;" d="M144 61.0895C138.063 62.0118 120.9 71.4657 118.603 77.1042C116.795 81.5445 118 88.2733 118 93C118 96.8201 117.023 102.359 119.028 105.79C121.322 109.717 127.235 111.8 131 114.011C135.013 116.368 141.068 121.677 146 120.91C151.647 120.033 168.975 110.876 171.397 105.621C173.415 101.242 172 93.7478 172 89C172 85.2107 173.188 78.9062 170.972 75.6096C168.572 72.0396 162.634 69.924 159 67.8495C154.992 65.5621 148.857 60.335 144 61.0895z"/>
<path style="fill:#939392; stroke:none;" d="M682 120L682 121L686 121L682 120M383 121L383 122L397 122L383 121M677 121L678 122L677 121z"/>
<path style="fill:#5b5b5a; stroke:none;" d="M678 121L679 122L678 121z"/>
<path style="fill:#1d1f1d; stroke:none;" d="M679 121.519C648.667 128.097 659.08 175.176 689 168.319C719.183 161.402 709.076 114.995 679 121.519z"/>
<path style="fill:#5b5b5a; stroke:none;" d="M689 121L690 122L689 121z"/>
<path style="fill:#939392; stroke:none;" d="M690 121L691 122L690 121M375.667 122.333L376.333 122.667L375.667 122.333z"/>
<path style="fill:#5b5b5a; stroke:none;" d="M377.667 122.333L378.333 122.667L377.667 122.333z"/>
<path style="fill:#1d1f1d; stroke:none;" d="M335 191L307 191L307 223L335 223L335 327L378 327L378 223L432 223L432 327L475 327L475 191L378 191C378 183.767 376.23 173.784 379.009 167.004C384.097 154.591 401.538 157.678 412 159L412 124C385.576 119.077 350.416 120.851 338.927 150C333.867 162.837 335 177.494 335 191z"/>
<path style="fill:#5b5b5a; stroke:none;" d="M402.667 122.333L403.333 122.667L402.667 122.333z"/>
<path style="fill:#939392; stroke:none;" d="M404 122L404 123L407 123L404 122M674 122L675 123L674 122z"/>
<path style="fill:#5b5b5a; stroke:none;" d="M675 122L676 123L675 122M692 122L693 123L692 122z"/>
<path style="fill:#939392; stroke:none;" d="M693 122L694 123L693 122M370 123L371 124L370 123z"/>
<path style="fill:#5b5b5a; stroke:none;" d="M371.667 123.333L372.333 123.667L371.667 123.333M409 123L410 124L409 123z"/>
<path style="fill:#939392; stroke:none;" d="M410 123L411 124L410 123M672 123L673 124L672 123M695 123L696 124L695 123M366.667 124.333L367.333 124.667L366.667 124.333z"/>
<path style="fill:#5b5b5a; stroke:none;" d="M368 124L369 125L368 124M412 124L412 159L413 159L412 124M671 124L672 125L671 124z"/>
<path style="fill:#939392; stroke:none;" d="M697 124L698 125L697 124M364 125L365 126L364 125M669 125L670 126L669 125M698 125L699 126L698 125M361 126L362 127L361 126z"/>
<path style="fill:#5b5b5a; stroke:none;" d="M362 126L363 127L362 126M668 126L669 127L668 126M699 126L700 127L699 126z"/>
<path style="fill:#939392; stroke:none;" d="M359 127L360 128L359 127z"/>
<path style="fill:#5b5b5a; stroke:none;" d="M667 127L668 128L667 127M700 127L701 128L700 127z"/>
<path style="fill:#939392; stroke:none;" d="M357 128L358 129L357 128z"/>
<path style="fill:#5b5b5a; stroke:none;" d="M666 128L667 129L666 128M701 128L702 129L701 128z"/>
<path style="fill:#939392; stroke:none;" d="M355 129L356 130L355 129z"/>
<path style="fill:#5b5b5a; stroke:none;" d="M665 129L666 130L665 129M702 129L703 130L702 129M354 130L355 131L354 130z"/>
<path style="fill:#939392; stroke:none;" d="M664 130L665 131L664 130M703 130L704 131L703 130M352 131L353 132L352 131M704 131L705 132L704 131M351 132L352 133L351 132z"/>
<path style="fill:#5b5b5a; stroke:none;" d="M663 132L664 133L663 132M704 132L705 133L704 132M350 133L351 134L350 133z"/>
<path style="fill:#939392; stroke:none;" d="M662 133L663 134L662 133M705 133L706 134L705 133z"/>
<path style="fill:#5b5b5a; stroke:none;" d="M349 134L350 135L349 134M348 135L349 136L348 135z"/>
<path style="fill:#939392; stroke:none;" d="M661 135L662 136L661 135M706 135L707 136L706 135z"/>
<path style="fill:#5b5b5a; stroke:none;" d="M347 136L348 137L347 136M661 136L662 137L661 136M706 136L707 137L706 136M346 137L347 138L346 137M345 138L346 139L345 138z"/>
<path style="fill:#939392; stroke:none;" d="M660 138L661 139L660 138M707 138L708 139L707 138M344 139L345 140L344 139z"/>
<path style="fill:#5b5b5a; stroke:none;" d="M660.333 139.667L660.667 140.333L660.333 139.667M707.333 139.667L707.667 140.333L707.333 139.667M343 141L344 142L343 141z"/>
<path style="fill:#939392; stroke:none;" d="M342 142L343 143L342 142M921.667 143.333L922.333 143.667L921.667 143.333z"/>
<path style="fill:#5b5b5a; stroke:none;" d="M341 144L342 145L341 144z"/>
<path style="fill:#939392; stroke:none;" d="M916 144L917 145L916 144z"/>
<path style="fill:#5b5b5a; stroke:none;" d="M917.667 144.333L918.333 144.667L917.667 144.333z"/>
<path style="fill:#1d1f1d; stroke:none;" d="M880 152L880 180L877.682 189.972L853 191L853 223L880 223L880 280C880 293.727 880.957 308.781 892.09 318.532C902.139 327.334 915.277 328.687 928 329.486C938.103 330.121 948.075 327.282 958 326L958 291C948.816 293.582 935.144 297.234 927.214 289.722C921.724 284.522 922 275.952 922 269L922 223L959 223L959 191L934 191L923.603 189.397L922 177L922 144L880 152z"/>
<path style="fill:#5b5b5a; stroke:none;" d="M922 144L922 190L923 190C923 176.997 927.01 155.939 922 144z"/>
<path style="fill:#939392; stroke:none;" d="M340 145L341 146L340 145M911.667 145.333L912.333 145.667L911.667 145.333z"/>
<path style="fill:#5b5b5a; stroke:none;" d="M913 145L914 146L913 145M340 146L341 147L340 146z"/>
<path style="fill:#939392; stroke:none;" d="M906.667 146.333L907.333 146.667L906.667 146.333z"/>
<path style="fill:#5b5b5a; stroke:none;" d="M908 146L909 147L908 146z"/>
<path style="fill:#939392; stroke:none;" d="M901.667 147.333L902.333 147.667L901.667 147.333z"/>
<path style="fill:#5b5b5a; stroke:none;" d="M903 147L904 148L903 147M339 148L340 149L339 148z"/>
<path style="fill:#939392; stroke:none;" d="M896.667 148.333L897.333 148.667L896.667 148.333z"/>
<path style="fill:#5b5b5a; stroke:none;" d="M898 148L899 149L898 148M660 149L661 150L660 149M707 149L708 150L707 149z"/>
<path style="fill:#939392; stroke:none;" d="M891.667 149.333L892.333 149.667L891.667 149.333z"/>
<path style="fill:#5b5b5a; stroke:none;" d="M893 149L894 150L893 149z"/>
<path style="fill:#939392; stroke:none;" d="M338 150L339 151L338 150M660.333 150.667L660.667 151.333L660.333 150.667M707.333 150.667L707.667 151.333L707.333 150.667M886.667 150.333L887.333 150.667L886.667 150.333z"/>
<path style="fill:#5b5b5a; stroke:none;" d="M888 150L889 151L888 150z"/>
<path style="fill:#939392; stroke:none;" d="M881.667 151.333L882.333 151.667L881.667 151.333z"/>
<path style="fill:#5b5b5a; stroke:none;" d="M883 151L884 152L883 151z"/>
<path style="fill:#939392; stroke:none;" d="M879 152L879 190L880 190C880 179.09 883.211 162.036 879 152M337 153L338 154L337 153z"/>
<path style="fill:#5b5b5a; stroke:none;" d="M661 153L662 154L661 153M706 153L707 154L706 153M337 154L338 155L337 154z"/>
<path style="fill:#939392; stroke:none;" d="M706 154L707 155L706 154z"/>
<path style="fill:#5b5b5a; stroke:none;" d="M662 155L663 156L662 155M705 155L706 156L705 155z"/>
<path style="fill:#939392; stroke:none;" d="M336.333 156.667L336.667 157.333L336.333 156.667M705 156L706 157L705 156z"/>
<path style="fill:#5b5b5a; stroke:none;" d="M663 157L664 158L663 157M704 157L705 158L704 157M336 158L337 159L336 158M388 158L389 159L388 158z"/>
<path style="fill:#939392; stroke:none;" d="M389 158L389 159L392 159L389 158M404 158L404 159L407 159L404 158z"/>
<path style="fill:#5b5b5a; stroke:none;" d="M407.667 158.333L408.333 158.667L407.667 158.333M385 159L386 160L385 159z"/>
<path style="fill:#939392; stroke:none;" d="M386 159L387 160L386 159M411.667 159.333L412.333 159.667L411.667 159.333M703 159L704 160L703 159M384 160L385 161L384 160M665 160L666 161L665 160M702 160L703 161L702 160M335 161L335 164L336 164L335 161z"/>
<path style="fill:#5b5b5a; stroke:none;" d="M382 161L383 162L382 161z"/>
<path style="fill:#939392; stroke:none;" d="M666 161L667 162L666 161M701 161L702 162L701 161M381 162L382 163L381 162M667 162L668 163L667 162M700 162L701 163L700 162z"/>
<path style="fill:#5b5b5a; stroke:none;" d="M380 163L381 164L380 163z"/>
<path style="fill:#939392; stroke:none;" d="M668 163L669 164L668 163M699 163L700 164L699 163z"/>
<path style="fill:#5b5b5a; stroke:none;" d="M335 164L335 167L336 167L335 164z"/>
<path style="fill:#939392; stroke:none;" d="M698 164L699 165L698 164M379 165L380 166L379 165M671 165L672 166L671 165z"/>
<path style="fill:#5b5b5a; stroke:none;" d="M696 165L697 166L696 165M673 166L674 167L673 166M694 166L695 167L694 166z"/>
<path style="fill:#939392; stroke:none;" d="M695 166L696 167L695 166z"/>
<path style="fill:#5b5b5a; stroke:none;" d="M378 167L379 168L378 167z"/>
<path style="fill:#939392; stroke:none;" d="M675 167L676 168L675 167z"/>
<path style="fill:#5b5b5a; stroke:none;" d="M692 167L693 168L692 167z"/>
<path style="fill:#939392; stroke:none;" d="M693 167L694 168L693 167M378.333 168.667L378.667 169.333L378.333 168.667M677.667 168.333L678.333 168.667L677.667 168.333z"/>
<path style="fill:#5b5b5a; stroke:none;" d="M679 168L680 169L679 168M688 168L689 169L688 168z"/>
<path style="fill:#939392; stroke:none;" d="M689.667 168.333L690.333 168.667L689.667 168.333M1206 187L1206 188L1213 188L1206 187M1318 187L1318 188L1325 188L1318 187M581 188L581 189L584 189L581 188z"/>
<path style="fill:#5b5b5a; stroke:none;" d="M584 188L584 189L587 189L584 188z"/>
<path style="fill:#1d1f1d; stroke:none;" d="M546 212L546 191L504 191L504 327L546 327L546 259C546 251.504 543.532 238.542 547.742 232.039C558.272 215.775 583.944 219.857 590.532 237C594.287 246.772 593 258.736 593 269L593 327L635 327L635 257C635 242.947 636.402 228.388 631.293 215C622.518 192.003 593.968 182.877 572 191.464C560.902 195.802 553.872 203.454 546 212z"/>
<path style="fill:#5b5b5a; stroke:none;" d="M593 188L593 189L596 189L593 188z"/>
<path style="fill:#939392; stroke:none;" d="M596.667 188.333L597.333 188.667L596.667 188.333M771 188L771 189L774 189L771 188z"/>
<path style="fill:#5b5b5a; stroke:none;" d="M774 188L774 189L779 189L774 188z"/>
<path style="fill:#1d1f1d; stroke:none;" d="M741 285L723 314C749.743 326.486 781.777 335.948 811 325.305C836.166 316.14 854.63 287.015 837.895 262.001C825.948 244.144 799.985 243.398 781 239.6C775.125 238.425 762.095 236.813 763.542 228.004C766.228 211.659 798.128 221.073 807 224.873C810.237 226.259 814.27 229.427 817.91 229.292C824.736 229.037 835.786 208.839 838 203C811.989 192.171 786.347 183.217 758 191.721C733.609 199.039 716.367 226.456 729.905 251C740.08 269.447 762.536 271.264 781 274.803C787.391 276.028 795.716 276.12 800.941 280.419C811.918 289.449 797.415 297.249 789 298.256C770.949 300.416 757.322 289.702 741 285z"/>
<path style="fill:#5b5b5a; stroke:none;" d="M787 188L787 189L791 189L787 188z"/>
<path style="fill:#939392; stroke:none;" d="M791 188L791 189L795 189L791 188M1030 188L1030 189L1033 189L1030 188z"/>
<path style="fill:#5b5b5a; stroke:none;" d="M1033 188L1033 189L1037 189L1033 188z"/>
<path style="fill:#1d1f1d; stroke:none;" d="M1100 309C1096.97 303.021 1079.99 286.398 1073 286.164C1067.79 285.989 1060.56 293.091 1055 294.522C1035.98 299.413 1017.56 288.19 1013 269L1107 269C1107 247.646 1104.74 226.703 1089.83 210C1059.61 176.154 1003.22 183.783 980.453 222C956.075 262.916 980.133 317.127 1026 327.765C1053.94 334.246 1077.27 323.971 1100 309z"/>
<path style="fill:#5b5b5a; stroke:none;" d="M1043 188L1043 189L1047 189L1043 188z"/>
<path style="fill:#939392; stroke:none;" d="M1047 188L1047 189L1050 189L1047 188M1201 188L1202 189L1201 188z"/>
<path style="fill:#5b5b5a; stroke:none;" d="M1202 188L1203 189L1202 188z"/>
<path style="fill:#1d1f1d; stroke:none;" d="M1173 221L1172 221L1172 191L1129 191L1129 327L1172 327L1172 266C1172 258.558 1169.79 246.773 1173.18 240C1182.96 220.466 1206.95 223.091 1224 227C1224 218.862 1227.76 198.267 1222.97 191.652C1220.07 187.645 1212.34 187.914 1208 188.015C1190.12 188.431 1177.56 205.048 1173 221z"/>
<path style="fill:#5b5b5a; stroke:none;" d="M1216 188L1217 189L1216 188z"/>
<path style="fill:#939392; stroke:none;" d="M1217.67 188.333L1218.33 188.667L1217.67 188.333M1313 188L1314 189L1313 188z"/>
<path style="fill:#5b5b5a; stroke:none;" d="M1314 188L1315 189L1314 188z"/>
<path style="fill:#1d1f1d; stroke:none;" d="M1285 221L1284 221L1284 191L1242 191L1242 327L1284 327L1284 267C1284 259.499 1281.83 247.907 1284.99 241C1294.28 220.668 1318.67 223.027 1336 227C1336 218.758 1339.76 198.259 1334.97 191.513C1332.19 187.591 1324.21 187.912 1320 188.015C1301.25 188.474 1291.06 205.39 1285 221z"/>
<path style="fill:#5b5b5a; stroke:none;" d="M1328.67 188.333L1329.33 188.667L1328.67 188.333z"/>
<path style="fill:#939392; stroke:none;" d="M1330 188L1331 189L1330 188M1400 188L1400 189L1404 189L1400 188z"/>
<path style="fill:#5b5b5a; stroke:none;" d="M1404 188L1404 189L1410 189L1404 188z"/>
<path style="fill:#1d1f1d; stroke:none;" d="M1350 203L1364 232C1383.46 229.085 1426.16 208.379 1430.71 243C1431.25 247.084 1430.95 251.016 1430 255C1406.57 244.613 1364.53 244.065 1349.61 269C1328.42 304.427 1369.63 333.534 1402 328.246C1413.37 326.388 1421.4 320.926 1431 315L1431 327L1472 327L1472 256C1472 242.51 1473.56 228.568 1467.68 216C1447.34 172.567 1383.56 189.233 1350 203z"/>
<path style="fill:#5b5b5a; stroke:none;" d="M1416 188L1416 189L1421 189L1416 188z"/>
<path style="fill:#939392; stroke:none;" d="M1421 188L1421 189L1425 189L1421 188M577 189L578 190L577 189z"/>
<path style="fill:#5b5b5a; stroke:none;" d="M578 189L579 190L578 189M600.667 189.333L601.333 189.667L600.667 189.333z"/>
<path style="fill:#939392; stroke:none;" d="M602 189L603 190L602 189M764.667 189.333L765.333 189.667L764.667 189.333z"/>
<path style="fill:#5b5b5a; stroke:none;" d="M766.667 189.333L767.333 189.667L766.667 189.333M798 189L799 190L798 189z"/>
<path style="fill:#939392; stroke:none;" d="M799 189L799 190L802 190L799 189M1024.67 189.333L1025.33 189.667L1024.67 189.333z"/>
<path style="fill:#5b5b5a; stroke:none;" d="M1026 189L1027 190L1026 189M1053 189L1054 190L1053 189z"/>
<path style="fill:#939392; stroke:none;" d="M1054.67 189.333L1055.33 189.667L1054.67 189.333M1198 189L1199 190L1198 189z"/>
<path style="fill:#5b5b5a; stroke:none;" d="M1220 189L1221 190L1220 189z"/>
<path style="fill:#939392; stroke:none;" d="M1310 189L1311 190L1310 189z"/>
<path style="fill:#5b5b5a; stroke:none;" d="M1311 189L1312 190L1311 189M1332 189L1333 190L1332 189z"/>
<path style="fill:#939392; stroke:none;" d="M1333 189L1334 190L1333 189M1392 189L1392 190L1395 190L1392 189z"/>
<path style="fill:#5b5b5a; stroke:none;" d="M1395 189L1396 190L1395 189M1427.67 189.333L1428.33 189.667L1427.67 189.333z"/>
<path style="fill:#939392; stroke:none;" d="M1429.67 189.333L1430.33 189.667L1429.67 189.333M306 190L306 224L335 224L335 223L307 223L306 190z"/>
<path style="fill:#5b5b5a; stroke:none;" d="M307 190L307 191L335 191L307 190M378 190L378 191L475 191L445 190L378 190M503 190L503 327L504 327L504 191L546 191C534.774 186.29 515.219 190 503 190z"/>
<path style="fill:#939392; stroke:none;" d="M546 190L546 212L547 212L546 190M573 190L574 191L573 190z"/>
<path style="fill:#5b5b5a; stroke:none;" d="M574 190L575 191L574 190M604 190L605 191L604 190z"/>
<path style="fill:#939392; stroke:none;" d="M605 190L606 191L605 190M662 190L662 327L663 327L663 231C663 219.318 666.508 200.742 662 190z"/>
<path style="fill:#5b5b5a; stroke:none;" d="M663 190L663 191L705 191C694.012 186.389 674.957 190 663 190z"/>
<path style="fill:#939392; stroke:none;" d="M705 190L705 327L706 327L706 231C706 219.318 709.508 200.742 705 190M760.667 190.333L761.333 190.667L760.667 190.333z"/>
<path style="fill:#5b5b5a; stroke:none;" d="M762 190L763 191L762 190M804 190L805 191L804 190z"/>
<path style="fill:#939392; stroke:none;" d="M805 190L806 191L805 190z"/>
<path style="fill:#5b5b5a; stroke:none;" d="M853 190L853 191L879 191L853 190M923 190L923 191L959 191C949.44 186.989 933.387 190 923 190z"/>
<path style="fill:#939392; stroke:none;" d="M959 190L959 223L960 223L959 190M1020 190L1021 191L1020 190z"/>
<path style="fill:#5b5b5a; stroke:none;" d="M1021 190L1022 191L1021 190M1058 190L1059 191L1058 190z"/>
<path style="fill:#939392; stroke:none;" d="M1059 190L1060 191L1059 190z"/>
<path style="fill:#5b5b5a; stroke:none;" d="M1129 190L1129 191L1172 191C1160.77 186.29 1141.22 190 1129 190z"/>
<path style="fill:#939392; stroke:none;" d="M1195 190L1196 191L1195 190z"/>
<path style="fill:#5b5b5a; stroke:none;" d="M1196 190L1197 191L1196 190M1222 190L1223 191L1222 190z"/>
<path style="fill:#939392; stroke:none;" d="M1241 190L1241 327L1242 327L1242 231C1242 219.318 1245.51 200.742 1241 190z"/>
<path style="fill:#5b5b5a; stroke:none;" d="M1242 190L1242 191L1284 191C1273.01 186.389 1253.96 190 1242 190z"/>
<path style="fill:#939392; stroke:none;" d="M1284 190L1284 220L1285 220L1284 190M1308 190L1309 191L1308 190M1335 190L1336 191L1335 190M1387.67 190.333L1388.33 190.667L1387.67 190.333z"/>
<path style="fill:#5b5b5a; stroke:none;" d="M1389 190L1390 191L1389 190M1433 190L1434 191L1433 190z"/>
<path style="fill:#939392; stroke:none;" d="M1434 190L1435 191L1434 190M571 191L572 192L571 191z"/>
<path style="fill:#5b5b5a; stroke:none;" d="M607 191L608 192L607 191z"/>
<path style="fill:#939392; stroke:none;" d="M608 191L609 192L608 191z"/>
<path style="fill:#1d1f1d; stroke:none;" d="M663 191L663 327L705 327L705 191L663 191z"/>
<path style="fill:#939392; stroke:none;" d="M757 191L758 192L757 191z"/>
<path style="fill:#5b5b5a; stroke:none;" d="M758 191L759 192L758 191M808 191L809 192L808 191z"/>
<path style="fill:#939392; stroke:none;" d="M809 191L810 192L809 191M1017 191L1018 192L1017 191z"/>
<path style="fill:#5b5b5a; stroke:none;" d="M1018 191L1019 192L1018 191M1061 191L1062 192L1061 191z"/>
<path style="fill:#939392; stroke:none;" d="M1062 191L1063 192L1062 191z"/>
<path style="fill:#5b5b5a; stroke:none;" d="M1194 191L1195 192L1194 191z"/>
<path style="fill:#939392; stroke:none;" d="M1306 191L1307 192L1306 191M1382.67 191.333L1383.33 191.667L1382.67 191.333z"/>
<path style="fill:#5b5b5a; stroke:none;" d="M1384 191L1385 192L1384 191M1437 191L1438 192L1437 191z"/>
<path style="fill:#939392; stroke:none;" d="M1438 191L1439 192L1438 191M568 192L569 193L568 192z"/>
<path style="fill:#5b5b5a; stroke:none;" d="M569 192L570 193L569 192z"/>
<path style="fill:#939392; stroke:none;" d="M610 192L611 193L610 192M754 192L755 193L754 192z"/>
<path style="fill:#5b5b5a; stroke:none;" d="M755 192L756 193L755 192M812 192L813 193L812 192z"/>
<path style="fill:#939392; stroke:none;" d="M813 192L814 193L813 192M1014 192L1015 193L1014 192z"/>
<path style="fill:#5b5b5a; stroke:none;" d="M1015 192L1016 193L1015 192M1064 192L1065 193L1064 192z"/>
<path style="fill:#939392; stroke:none;" d="M1065 192L1066 193L1065 192M1192 192L1193 193L1192 192M1304 192L1305 193L1304 192M1378.67 192.333L1379.33 192.667L1378.67 192.333z"/>
<path style="fill:#5b5b5a; stroke:none;" d="M1380 192L1381 193L1380 192M1440 192L1441 193L1440 192z"/>
<path style="fill:#939392; stroke:none;" d="M1441 192L1442 193L1441 192M566 193L567 194L566 193z"/>
<path style="fill:#5b5b5a; stroke:none;" d="M567 193L568 194L567 193z"/>
<path style="fill:#939392; stroke:none;" d="M612 193L613 194L612 193M751 193L752 194L751 193z"/>
<path style="fill:#5b5b5a; stroke:none;" d="M752 193L753 194L752 193M815 193L816 194L815 193z"/>
<path style="fill:#939392; stroke:none;" d="M816 193L817 194L816 193M1012 193L1013 194L1012 193M1067 193L1068 194L1067 193z"/>
<path style="fill:#5b5b5a; stroke:none;" d="M1191 193L1192 194L1191 193M1303 193L1304 194L1303 193z"/>
<path style="fill:#939392; stroke:none;" d="M1374.67 193.333L1375.33 193.667L1374.67 193.333z"/>
<path style="fill:#5b5b5a; stroke:none;" d="M1376 193L1377 194L1376 193z"/>
<path style="fill:#939392; stroke:none;" d="M1443 193L1444 194L1443 193z"/>
<path style="fill:#5b5b5a; stroke:none;" d="M565 194L566 195L565 194M613 194L614 195L613 194z"/>
<path style="fill:#939392; stroke:none;" d="M749 194L750 195L749 194z"/>
<path style="fill:#5b5b5a; stroke:none;" d="M750 194L751 195L750 194M818 194L819 195L818 194z"/>
<path style="fill:#939392; stroke:none;" d="M819 194L820 195L819 194z"/>
<path style="fill:#5b5b5a; stroke:none;" d="M1010 194L1011 195L1010 194M1069 194L1070 195L1069 194z"/>
<path style="fill:#939392; stroke:none;" d="M1189 194L1190 195L1189 194M1371 194L1372 195L1371 194z"/>
<path style="fill:#5b5b5a; stroke:none;" d="M1372 194L1373 195L1372 194M1445 194L1446 195L1445 194z"/>
<path style="fill:#939392; stroke:none;" d="M563 195L564 196L563 195M615 195L616 196L615 195M747 195L748 196L747 195M821 195L822 196L821 195z"/>
<path style="fill:#5b5b5a; stroke:none;" d="M1008 195L1009 196L1008 195M1071 195L1072 196L1071 195z"/>
<path style="fill:#939392; stroke:none;" d="M1188 195L1189 196L1188 195M1300 195L1301 196L1300 195M1368 195L1369 196L1368 195z"/>
<path style="fill:#5b5b5a; stroke:none;" d="M1369 195L1370 196L1369 195M1447 195L1448 196L1447 195M616 196L617 197L616 196z"/>
<path style="fill:#939392; stroke:none;" d="M745 196L746 197L745 196z"/>
<path style="fill:#5b5b5a; stroke:none;" d="M746 196L747 197L746 196M823 196L824 197L823 196z"/>
<path style="fill:#939392; stroke:none;" d="M824 196L825 197L824 196z"/>
<path style="fill:#5b5b5a; stroke:none;" d="M1006 196L1007 197L1006 196z"/>
<path style="fill:#939392; stroke:none;" d="M1073 196L1074 197L1073 196z"/>
<path style="fill:#5b5b5a; stroke:none;" d="M1187 196L1188 197L1187 196z"/>
<path style="fill:#939392; stroke:none;" d="M1299 196L1300 197L1299 196M1365 196L1366 197L1365 196z"/>
<path style="fill:#5b5b5a; stroke:none;" d="M1366 196L1367 197L1366 196z"/>
<path style="fill:#939392; stroke:none;" d="M1449 196L1450 197L1449 196M560 197L561 198L560 197M618 197L619 198L618 197z"/>
<path style="fill:#5b5b5a; stroke:none;" d="M744 197L745 198L744 197z"/>
<path style="fill:#939392; stroke:none;" d="M826 197L827 198L826 197M1004 197L1005 198L1004 197M1075 197L1076 198L1075 197z"/>
<path style="fill:#5b5b5a; stroke:none;" d="M1186 197L1187 198L1186 197z"/>
<path style="fill:#939392; stroke:none;" d="M1298 197L1299 198L1298 197M1362 197L1363 198L1362 197z"/>
<path style="fill:#5b5b5a; stroke:none;" d="M1363 197L1364 198L1363 197z"/>
<path style="fill:#939392; stroke:none;" d="M1451 197L1452 198L1451 197z"/>
<path style="fill:#5b5b5a; stroke:none;" d="M559 198L560 199L559 198z"/>
<path style="fill:#939392; stroke:none;" d="M619 198L620 199L619 198M742 198L743 199L742 198z"/>
<path style="fill:#5b5b5a; stroke:none;" d="M828 198L829 199L828 198M1003 198L1004 199L1003 198M1076 198L1077 199L1076 198M1185 198L1186 199L1185 198z"/>
<path style="fill:#939392; stroke:none;" d="M1297 198L1298 199L1297 198M1360 198L1361 199L1360 198z"/>
<path style="fill:#5b5b5a; stroke:none;" d="M1452 198L1453 199L1452 198M620 199L621 200L620 199M741 199L742 200L741 199M830 199L831 200L830 199z"/>
<path style="fill:#939392; stroke:none;" d="M1001 199L1002 200L1001 199M1078 199L1079 200L1078 199M1184 199L1185 200L1184 199M1357 199L1358 200L1357 199z"/>
<path style="fill:#5b5b5a; stroke:none;" d="M1358 199L1359 200L1358 199z"/>
<path style="fill:#939392; stroke:none;" d="M1454 199L1455 200L1454 199M556 200L557 201L556 200z"/>
<path style="fill:#5b5b5a; stroke:none;" d="M621 200L622 201L621 200M740 200L741 201L740 200M832 200L833 201L832 200M1000 200L1001 201L1000 200M1079 200L1080 201L1079 200z"/>
<path style="fill:#939392; stroke:none;" d="M1183 200L1184 201L1183 200M1355 200L1356 201L1355 200M1455 200L1456 201L1455 200M555 201L556 202L555 201z"/>
<path style="fill:#5b5b5a; stroke:none;" d="M622 201L623 202L622 201M834 201L835 202L834 201z"/>
<path style="fill:#939392; stroke:none;" d="M998 201L999 202L998 201z"/>
<path style="fill:#5b5b5a; stroke:none;" d="M1080 201L1081 202L1080 201M1295 201L1296 202L1295 201z"/>
<path style="fill:#939392; stroke:none;" d="M1352 201L1353 202L1352 201z"/>
<path style="fill:#5b5b5a; stroke:none;" d="M1353 201L1354 202L1353 201M1456 201L1457 202L1456 201z"/>
<path style="fill:#939392; stroke:none;" d="M554 202L555 203L554 202z"/>
<path style="fill:#5b5b5a; stroke:none;" d="M623 202L624 203L623 202z"/>
<path style="fill:#939392; stroke:none;" d="M737 202L738 203L737 202M836 202L837 203L836 202z"/>
<path style="fill:#5b5b5a; stroke:none;" d="M997 202L998 203L997 202z"/>
<path style="fill:#939392; stroke:none;" d="M1082 202L1083 203L1082 202z"/>
<path style="fill:#5b5b5a; stroke:none;" d="M1182 202L1183 203L1182 202z"/>
<path style="fill:#939392; stroke:none;" d="M1294 202L1295 203L1294 202M1350 202L1351 203L1350 202z"/>
<path style="fill:#5b5b5a; stroke:none;" d="M1351 202L1352 203L1351 202M1457 202L1458 203L1457 202z"/>
<path style="fill:#939392; stroke:none;" d="M553 203L554 204L553 203M624 203L625 204L624 203M736 203L737 204L736 203M838.333 203.667L838.667 204.333L838.333 203.667z"/>
<path style="fill:#5b5b5a; stroke:none;" d="M996 203L997 204L996 203z"/>
<path style="fill:#939392; stroke:none;" d="M1083 203L1084 204L1083 203z"/>
<path style="fill:#5b5b5a; stroke:none;" d="M1181 203L1182 204L1181 203z"/>
<path style="fill:#939392; stroke:none;" d="M1293 203L1294 204L1293 203z"/>
<path style="fill:#5b5b5a; stroke:none;" d="M1458 203L1459 204L1458 203z"/>
<path style="fill:#939392; stroke:none;" d="M552 204L553 205L552 204M625 204L626 205L625 204M735 204L736 205L735 204M1084 204L1085 205L1084 204M1180 204L1181 205L1180 204z"/>
<path style="fill:#5b5b5a; stroke:none;" d="M1350 204L1351 205L1350 204M1459 204L1460 205L1459 204z"/>
<path style="fill:#939392; stroke:none;" d="M551 205L552 206L551 205z"/>
<path style="fill:#5b5b5a; stroke:none;" d="M837 205L838 206L837 205z"/>
<path style="fill:#939392; stroke:none;" d="M993 205L994 206L993 205z"/>
<path style="fill:#5b5b5a; stroke:none;" d="M1085 205L1086 206L1085 205M1292 205L1293 206L1292 205M1460 205L1461 206L1460 205M626 206L627 207L626 206M836 206L837 207L836 206z"/>
<path style="fill:#939392; stroke:none;" d="M992 206L993 207L992 206z"/>
<path style="fill:#5b5b5a; stroke:none;" d="M1086 206L1087 207L1086 206M1179 206L1180 207L1179 206z"/>
<path style="fill:#939392; stroke:none;" d="M1291 206L1292 207L1291 206z"/>
<path style="fill:#5b5b5a; stroke:none;" d="M1351 206L1352 207L1351 206M1461 206L1462 207L1461 206z"/>
<path style="fill:#939392; stroke:none;" d="M627 207L628 208L627 207z"/>
<path style="fill:#5b5b5a; stroke:none;" d="M733 207L734 208L733 207z"/>
<path style="fill:#939392; stroke:none;" d="M991 207L992 208L991 207z"/>
<path style="fill:#5b5b5a; stroke:none;" d="M1087 207L1088 208L1087 207M1291 207L1292 208L1291 207z"/>
<path style="fill:#939392; stroke:none;" d="M1462 207L1463 208L1462 207z"/>
<path style="fill:#5b5b5a; stroke:none;" d="M549 208L550 209L549 208z"/>
<path style="fill:#939392; stroke:none;" d="M732 208L733 209L732 208M835 208L836 209L835 208M990 208L991 209L990 208z"/>
<path style="fill:#5b5b5a; stroke:none;" d="M1088 208L1089 209L1088 208M1178 208L1179 209L1178 208z"/>
<path style="fill:#939392; stroke:none;" d="M1290 208L1291 209L1290 208z"/>
<path style="fill:#5b5b5a; stroke:none;" d="M1352 208L1353 209L1352 208z"/>
<path style="fill:#939392; stroke:none;" d="M1463 208L1464 209L1463 208M548 209L549 210L548 209z"/>
<path style="fill:#5b5b5a; stroke:none;" d="M628 209L629 210L628 209M834 209L835 210L834 209z"/>
<path style="fill:#939392; stroke:none;" d="M989 209L990 210L989 209M1089 209L1090 210L1089 209M1177 209L1178 210L1177 209M629 210L630 211L629 210z"/>
<path style="fill:#5b5b5a; stroke:none;" d="M731 210L732 211L731 210z"/>
<path style="fill:#939392; stroke:none;" d="M988 210L989 211L988 210M1090 210L1091 211L1090 210z"/>
<path style="fill:#5b5b5a; stroke:none;" d="M1177 210L1178 211L1177 210z"/>
<path style="fill:#939392; stroke:none;" d="M1289 210L1290 211L1289 210z"/>
<path style="fill:#5b5b5a; stroke:none;" d="M1353 210L1354 211L1353 210M1464 210L1465 211L1464 210z"/>
<path style="fill:#939392; stroke:none;" d="M730 211L731 212L730 211M833 211L834 212L833 211M987 211L988 212L987 211M1091 211L1092 212L1091 211M1176 211L1177 212L1176 211M1465 211L1466 212L1465 211M630 212L631 213L630 212M832 212L833 213L832 212M1288 212L1289 213L1288 212z"/>
<path style="fill:#5b5b5a; stroke:none;" d="M1354 212L1355 213L1354 212z"/>
<path style="fill:#939392; stroke:none;" d="M729 213L730 214L729 213z"/>
<path style="fill:#5b5b5a; stroke:none;" d="M831 213L832 214L831 213M986 213L987 214L986 213M1092 213L1093 214L1092 213z"/>
<path style="fill:#939392; stroke:none;" d="M1175 213L1176 214L1175 213z"/>
<path style="fill:#5b5b5a; stroke:none;" d="M1466 213L1467 214L1466 213z"/>
<path style="fill:#939392; stroke:none;" d="M631 214L632 215L631 214z"/>
<path style="fill:#5b5b5a; stroke:none;" d="M985 214L986 215L985 214z"/>
<path style="fill:#939392; stroke:none;" d="M1093 214L1094 215L1093 214z"/>
<path style="fill:#5b5b5a; stroke:none;" d="M1175 214L1176 215L1175 214z"/>
<path style="fill:#939392; stroke:none;" d="M1287 214L1288 215L1287 214z"/>
<path style="fill:#5b5b5a; stroke:none;" d="M1355 214L1356 215L1355 214M631 215L632 216L631 215z"/>
<path style="fill:#939392; stroke:none;" d="M728 215L729 216L728 215M830 215L831 216L830 215M984 215L985 216L984 215M1094 215L1095 216L1094 215M1174 215L1175 216L1174 215z"/>
<path style="fill:#5b5b5a; stroke:none;" d="M1467 215L1468 216L1467 215M728 216L729 217L728 216M829 216L830 217L829 216M1174 216L1175 217L1174 216z"/>
<path style="fill:#939392; stroke:none;" d="M1286 216L1287 217L1286 216z"/>
<path style="fill:#5b5b5a; stroke:none;" d="M1356 216L1357 217L1356 216z"/>
<path style="fill:#939392; stroke:none;" d="M632 217L633 218L632 217z"/>
<path style="fill:#5b5b5a; stroke:none;" d="M983 217L984 218L983 217z"/>
<path style="fill:#939392; stroke:none;" d="M1095 217L1096 218L1095 217z"/>
<path style="fill:#5b5b5a; stroke:none;" d="M1286 217L1287 218L1286 217z"/>
<path style="fill:#939392; stroke:none;" d="M1356 217L1357 218L1356 217z"/>
<path style="fill:#5b5b5a; stroke:none;" d="M1468 217L1469 218L1468 217M632 218L633 219L632 218z"/>
<path style="fill:#939392; stroke:none;" d="M727 218L728 219L727 218M828 218L829 219L828 218M982 218L983 219L982 218z"/>
<path style="fill:#5b5b5a; stroke:none;" d="M1173 218L1174 219L1173 218M1357 218L1358 219L1357 218M727 219L728 220L727 219M774.667 219.333L775.333 219.667L774.667 219.333z"/>
<path style="fill:#939392; stroke:none;" d="M776 219L776 220L784 220L776 219z"/>
<path style="fill:#5b5b5a; stroke:none;" d="M784 219L784 220L787 220L784 219z"/>
<path style="fill:#939392; stroke:none;" d="M827 219L828 220L827 219z"/>
<path style="fill:#5b5b5a; stroke:none;" d="M1096 219L1097 220L1096 219z"/>
<path style="fill:#939392; stroke:none;" d="M1172 219L1173 220L1172 219z"/>
<path style="fill:#5b5b5a; stroke:none;" d="M1285 219L1286 220L1285 219z"/>
<path style="fill:#939392; stroke:none;" d="M1357 219L1358 220L1357 219M1469 219L1470 220L1469 219M633 220L634 221L633 220z"/>
<path style="fill:#5b5b5a; stroke:none;" d="M770 220L771 221L770 220z"/>
<path style="fill:#939392; stroke:none;" d="M771 220L772 221L771 220M790.667 220.333L791.333 220.667L790.667 220.333z"/>
<path style="fill:#5b5b5a; stroke:none;" d="M792 220L793 221L792 220M826 220L827 221L826 220M981 220L982 221L981 220z"/>
<path style="fill:#939392; stroke:none;" d="M1097 220L1098 221L1097 220z"/>
<path style="fill:#5b5b5a; stroke:none;" d="M1172 220L1173 221L1172 220M1284 220L1285 221L1284 220M1358 220L1359 221L1358 220M1469 220L1470 221L1469 220M633 221L634 222L633 221z"/>
<path style="fill:#939392; stroke:none;" d="M726.333 221.667L726.667 222.333L726.333 221.667M768 221L769 222L768 221M795.667 221.333L796.333 221.667L795.667 221.333z"/>
<path style="fill:#5b5b5a; stroke:none;" d="M797 221L798 222L797 221z"/>
<path style="fill:#939392; stroke:none;" d="M980 221L981 222L980 221z"/>
<path style="fill:#5b5b5a; stroke:none;" d="M1036 221L1036 222L1039 222L1036 221z"/>
<path style="fill:#939392; stroke:none;" d="M1039 221L1040 222L1039 221z"/>
<path style="fill:#5b5b5a; stroke:none;" d="M1040 221L1040 222L1044 222L1040 221z"/>
<path style="fill:#939392; stroke:none;" d="M1358 221L1359 222L1358 221z"/>
<path style="fill:#5b5b5a; stroke:none;" d="M561 222L562 223L561 222z"/>
<path style="fill:#939392; stroke:none;" d="M562.667 222.333L563.333 222.667L562.667 222.333M574 222L575 223L574 222z"/>
<path style="fill:#5b5b5a; stroke:none;" d="M575.667 222.333L576.333 222.667L575.667 222.333z"/>
<path style="fill:#939392; stroke:none;" d="M766 222L767 223L766 222M799 222L800 223L799 222z"/>
<path style="fill:#5b5b5a; stroke:none;" d="M800 222L801 223L800 222z"/>
<path style="fill:#939392; stroke:none;" d="M825 222L826 223L825 222z"/>
<path style="fill:#5b5b5a; stroke:none;" d="M1031 222L1032 223L1031 222z"/>
<path style="fill:#939392; stroke:none;" d="M1032.67 222.333L1033.33 222.667L1032.67 222.333z"/>
<path style="fill:#ffffff; stroke:none;" d="M1014 245L1067 245C1060.35 216.99 1017.21 212.957 1014 245z"/>
<path style="fill:#939392; stroke:none;" d="M1046 222L1047 223L1046 222z"/>
<path style="fill:#5b5b5a; stroke:none;" d="M1047 222L1048 223L1047 222z"/>
<path style="fill:#939392; stroke:none;" d="M1098 222L1099 223L1098 222z"/>
<path style="fill:#5b5b5a; stroke:none;" d="M1359 222L1360 223L1359 222z"/>
<path style="fill:#939392; stroke:none;" d="M1470 222L1471 223L1470 222M378 223L378 224L432 224L414 223L378 223z"/>
<path style="fill:#5b5b5a; stroke:none;" d="M558 223L559 224L558 223z"/>
<path style="fill:#939392; stroke:none;" d="M559 223L560 224L559 223M578 223L579 224L578 223z"/>
<path style="fill:#5b5b5a; stroke:none;" d="M726.333 223.667L726.667 224.333L726.333 223.667z"/>
<path style="fill:#939392; stroke:none;" d="M765 223L766 224L765 223M802 223L803 224L802 223z"/>
<path style="fill:#5b5b5a; stroke:none;" d="M803 223L804 224L803 223M824 223L825 224L824 223z"/>
<path style="fill:#939392; stroke:none;" d="M853 223L853 224L879 224L879 290C884.406 277.117 880 254.038 880 240C880 236.214 881.716 226.657 878.397 224.028C873.694 220.303 858.887 223 853 223z"/>
<path style="fill:#5b5b5a; stroke:none;" d="M879 223L880 224L879 223M922 223L922 280L923 280L923 241L922 223z"/>
<path style="fill:#939392; stroke:none;" d="M923 223L923 224L959 224C949.44 219.989 933.387 223 923 223M979 223L980 224L979 223M1029 223L1030 224L1029 223M1049 223L1050 224L1049 223z"/>
<path style="fill:#5b5b5a; stroke:none;" d="M1050 223L1051 224L1050 223M1201 223L1201 224L1208 224L1201 223M1313 223L1313 224L1320 224L1313 223z"/>
<path style="fill:#939392; stroke:none;" d="M1359 223L1360 224L1359 223z"/>
<path style="fill:#5b5b5a; stroke:none;" d="M1396 223L1396 224L1399 224L1396 223z"/>
<path style="fill:#939392; stroke:none;" d="M1399 223L1399 224L1407 224L1399 223z"/>
<path style="fill:#5b5b5a; stroke:none;" d="M1407 223L1407 224L1410 224L1407 223M1470 223L1471 224L1470 223M556 224L557 225L556 224z"/>
<path style="fill:#939392; stroke:none;" d="M557 224L558 225L557 224M580 224L581 225L580 224M634.333 224.667L634.667 225.333L634.333 224.667M764 224L765 225L764 224M805 224L806 225L805 224z"/>
<path style="fill:#5b5b5a; stroke:none;" d="M806 224L807 225L806 224z"/>
<path style="fill:#939392; stroke:none;" d="M1027 224L1028 225L1027 224z"/>
<path style="fill:#5b5b5a; stroke:none;" d="M1052 224L1053 225L1052 224z"/>
<path style="fill:#939392; stroke:none;" d="M1099 224L1100 225L1099 224z"/>
<path style="fill:#5b5b5a; stroke:none;" d="M1195 224L1196 225L1195 224z"/>
<path style="fill:#939392; stroke:none;" d="M1196 224L1197 225L1196 224M1211 224L1211 225L1214 225L1211 224z"/>
<path style="fill:#5b5b5a; stroke:none;" d="M1214 224L1215 225L1214 224M1307 224L1308 225L1307 224z"/>
<path style="fill:#939392; stroke:none;" d="M1308.67 224.333L1309.33 224.667L1308.67 224.333M1324.67 224.333L1325.33 224.667L1324.67 224.333z"/>
<path style="fill:#5b5b5a; stroke:none;" d="M1326 224L1327 225L1326 224M1360 224L1361 225L1360 224M1390 224L1391 225L1390 224z"/>
<path style="fill:#939392; stroke:none;" d="M1391.67 224.333L1392.33 224.667L1391.67 224.333M1413.67 224.333L1414.33 224.667L1413.67 224.333z"/>
<path style="fill:#5b5b5a; stroke:none;" d="M1415 224L1416 225L1415 224M554 225L555 226L554 225M582 225L583 226L582 225z"/>
<path style="fill:#939392; stroke:none;" d="M807 225L808 226L807 225z"/>
<path style="fill:#5b5b5a; stroke:none;" d="M808 225L809 226L808 225z"/>
<path style="fill:#939392; stroke:none;" d="M823 225L824 226L823 225z"/>
<path style="fill:#5b5b5a; stroke:none;" d="M978 225L979 226L978 225z"/>
<path style="fill:#939392; stroke:none;" d="M1025 225L1026 226L1025 225M1053 225L1054 226L1053 225z"/>
<path style="fill:#5b5b5a; stroke:none;" d="M1191 225L1192 226L1191 225z"/>
<path style="fill:#939392; stroke:none;" d="M1192 225L1193 226L1192 225M1217 225L1218 226L1217 225z"/>
<path style="fill:#5b5b5a; stroke:none;" d="M1218 225L1219 226L1218 225z"/>
<path style="fill:#939392; stroke:none;" d="M1304.67 225.333L1305.33 225.667L1304.67 225.333M1329 225L1330 226L1329 225z"/>
<path style="fill:#5b5b5a; stroke:none;" d="M1330 225L1331 226L1330 225z"/>
<path style="fill:#939392; stroke:none;" d="M1360 225L1361 226L1360 225z"/>
<path style="fill:#5b5b5a; stroke:none;" d="M1385 225L1386 226L1385 225z"/>
<path style="fill:#939392; stroke:none;" d="M1386.67 225.333L1387.33 225.667L1386.67 225.333M1417 225L1418 226L1417 225z"/>
<path style="fill:#5b5b5a; stroke:none;" d="M1418 225L1419 226L1418 225z"/>
<path style="fill:#939392; stroke:none;" d="M553 226L554 227L553 226M583 226L584 227L583 226z"/>
<path style="fill:#5b5b5a; stroke:none;" d="M634.333 226.667L634.667 227.333L634.333 226.667z"/>
<path style="fill:#939392; stroke:none;" d="M763 226L763 231L764 231L763 226M810 226L811 227L810 226M822 226L823 227L822 226M1024 226L1025 227L1024 226z"/>
<path style="fill:#5b5b5a; stroke:none;" d="M1055 226L1056 227L1055 226z"/>
<path style="fill:#939392; stroke:none;" d="M1100 226L1101 227L1100 226M1189 226L1190 227L1189 226M1220 226L1221 227L1220 226z"/>
<path style="fill:#5b5b5a; stroke:none;" d="M1221 226L1222 227L1221 226M1301 226L1302 227L1301 226z"/>
<path style="fill:#939392; stroke:none;" d="M1302 226L1303 227L1302 226M1332 226L1333 227L1332 226z"/>
<path style="fill:#5b5b5a; stroke:none;" d="M1333 226L1334 227L1333 226M1361 226L1362 227L1361 226M1382 226L1383 227L1382 226z"/>
<path style="fill:#939392; stroke:none;" d="M1383 226L1384 227L1383 226M1420 226L1421 227L1420 226M1471 226L1472 227L1471 226M584 227L585 228L584 227M725 227L725 238L726 238L725 227M812 227L813 228L812 227z"/>
<path style="fill:#5b5b5a; stroke:none;" d="M821 227L822 228L821 227M977 227L978 228L977 227M1022 227L1023 228L1022 227z"/>
<path style="fill:#939392; stroke:none;" d="M1056 227L1057 228L1056 227M1187 227L1188 228L1187 227M1222 227L1223 228L1222 227z"/>
<path style="fill:#5b5b5a; stroke:none;" d="M1223 227L1224 228L1223 227M1299 227L1300 228L1299 227M1335 227L1336 228L1335 227z"/>
<path style="fill:#939392; stroke:none;" d="M1361 227L1362 228L1361 227z"/>
<path style="fill:#5b5b5a; stroke:none;" d="M1378 227L1379 228L1378 227z"/>
<path style="fill:#939392; stroke:none;" d="M1379 227L1380 228L1379 227z"/>
<path style="fill:#5b5b5a; stroke:none;" d="M1422 227L1423 228L1422 227M1471 227L1472 228L1471 227M550 228L551 229L550 228z"/>
<path style="fill:#939392; stroke:none;" d="M585 228L586 229L585 228M814 228L815 229L814 228z"/>
<path style="fill:#5b5b5a; stroke:none;" d="M1021 228L1022 229L1021 228z"/>
<path style="fill:#939392; stroke:none;" d="M1101 228L1102 229L1101 228M1185 228L1186 229L1185 228z"/>
<path style="fill:#5b5b5a; stroke:none;" d="M1297 228L1298 229L1297 228M1362 228L1363 229L1362 228M1375 228L1376 229L1375 228z"/>
<path style="fill:#939392; stroke:none;" d="M1376 228L1377 229L1376 228M1423 228L1424 229L1423 228z"/>
<path style="fill:#5b5b5a; stroke:none;" d="M549 229L550 230L549 229z"/>
<path style="fill:#939392; stroke:none;" d="M586 229L587 230L586 229z"/>
<path style="fill:#5b5b5a; stroke:none;" d="M816 229L817 230L816 229z"/>
<path style="fill:#939392; stroke:none;" d="M820 229L821 230L820 229M976 229L977 230L976 229z"/>
<path style="fill:#5b5b5a; stroke:none;" d="M1020 229L1021 230L1020 229M1101 229L1102 230L1101 229M1183 229L1184 230L1183 229z"/>
<path style="fill:#939392; stroke:none;" d="M1296 229L1297 230L1296 229M1362 229L1363 230L1362 229z"/>
<path style="fill:#5b5b5a; stroke:none;" d="M1372 229L1373 230L1372 229z"/>
<path style="fill:#939392; stroke:none;" d="M1373 229L1374 230L1373 229z"/>
<path style="fill:#5b5b5a; stroke:none;" d="M548 230L549 231L548 230M587 230L588 231L587 230M818.667 230.333L819.333 230.667L818.667 230.333z"/>
<path style="fill:#939392; stroke:none;" d="M1182 230L1183 231L1182 230z"/>
<path style="fill:#5b5b5a; stroke:none;" d="M1294 230L1295 231L1294 230M1363 230L1364 231L1363 230M1370 230L1371 231L1370 230M547 231L548 232L547 231M763 231L764 232L763 231z"/>
<path style="fill:#939392; stroke:none;" d="M975 231L976 232L975 231M1060 231L1061 232L1060 231z"/>
<path style="fill:#5b5b5a; stroke:none;" d="M1102 231L1103 232L1102 231z"/>
<path style="fill:#939392; stroke:none;" d="M1293 231L1294 232L1293 231M1363 231L1364 232L1363 231z"/>
<path style="fill:#5b5b5a; stroke:none;" d="M1367 231L1368 232L1367 231z"/>
<path style="fill:#939392; stroke:none;" d="M1368 231L1369 232L1368 231M1426 231L1427 232L1426 231M1472 231L1472 235L1473 235L1472 231M588 232L589 233L588 232z"/>
<path style="fill:#5b5b5a; stroke:none;" d="M975 232L976 233L975 232z"/>
<path style="fill:#939392; stroke:none;" d="M1018 232L1019 233L1018 232M1061 232L1062 233L1061 232z"/>
<path style="fill:#5b5b5a; stroke:none;" d="M1179 232L1180 233L1179 232M1364.67 232.333L1365.33 232.667L1364.67 232.333z"/>
<path style="fill:#939392; stroke:none;" d="M1427 232L1428 233L1427 232M546 233L546 327L547 327L547 262L546 233z"/>
<path style="fill:#5b5b5a; stroke:none;" d="M764 233L765 234L764 233M1017 233L1018 234L1017 233M1062 233L1063 234L1062 233z"/>
<path style="fill:#939392; stroke:none;" d="M1103 233L1104 234L1103 233z"/>
<path style="fill:#5b5b5a; stroke:none;" d="M1178 233L1179 234L1178 233M1290 233L1291 234L1290 233z"/>
<path style="fill:#939392; stroke:none;" d="M589 234L590 235L589 234M635 234L635 327L636 327L636 263L635 234M765 234L766 235L765 234M974 234L975 235L974 234M1017 234L1018 235L1017 234z"/>
<path style="fill:#5b5b5a; stroke:none;" d="M1103 234L1104 235L1103 234z"/>
<path style="fill:#939392; stroke:none;" d="M1177 234L1178 235L1177 234z"/>
<path style="fill:#5b5b5a; stroke:none;" d="M1289 234L1290 235L1289 234z"/>
<path style="fill:#939392; stroke:none;" d="M1428 234L1429 235L1428 234z"/>
<path style="fill:#5b5b5a; stroke:none;" d="M766 235L767 236L766 235M974 235L975 236L974 235M1016 235L1017 236L1016 235z"/>
<path style="fill:#939392; stroke:none;" d="M1063 235L1064 236L1063 235M1176 235L1177 236L1176 235z"/>
<path style="fill:#5b5b5a; stroke:none;" d="M1288 235L1289 236L1288 235M1472 235L1472 327L1473 327L1473 263L1472 235z"/>
<path style="fill:#939392; stroke:none;" d="M590.333 236.667L590.667 237.333L590.333 236.667z"/>
<path style="fill:#5b5b5a; stroke:none;" d="M768 236L769 237L768 236z"/>
<path style="fill:#939392; stroke:none;" d="M769 236L770 237L769 236z"/>
<path style="fill:#5b5b5a; stroke:none;" d="M1064 236L1065 237L1064 236z"/>
<path style="fill:#939392; stroke:none;" d="M1104.33 236.667L1104.67 237.333L1104.33 236.667z"/>
<path style="fill:#5b5b5a; stroke:none;" d="M1175 236L1176 237L1175 236M1429 236L1430 237L1429 236M771 237L772 238L771 237z"/>
<path style="fill:#939392; stroke:none;" d="M772 237L773 238L772 237M973 237L974 238L973 237z"/>
<path style="fill:#5b5b5a; stroke:none;" d="M1015 237L1016 238L1015 237z"/>
<path style="fill:#939392; stroke:none;" d="M1064 237L1065 238L1064 237z"/>
<path style="fill:#5b5b5a; stroke:none;" d="M1174 237L1175 238L1174 237z"/>
<path style="fill:#939392; stroke:none;" d="M1429.33 237.667L1429.67 238.333L1429.33 237.667z"/>
<path style="fill:#5b5b5a; stroke:none;" d="M775 238L776 239L775 238z"/>
<path style="fill:#939392; stroke:none;" d="M776.667 238.333L777.333 238.667L776.667 238.333z"/>
<path style="fill:#5b5b5a; stroke:none;" d="M973 238L974 239L973 238z"/>
<path style="fill:#939392; stroke:none;" d="M1015 238L1016 239L1015 238z"/>
<path style="fill:#5b5b5a; stroke:none;" d="M1065 238L1066 239L1065 238M1104 238L1105 239L1104 238M1173 238L1174 239L1173 238z"/>
<path style="fill:#939392; stroke:none;" d="M1286 238L1287 239L1286 238z"/>
<path style="fill:#5b5b5a; stroke:none;" d="M591 239L592 240L591 239M780 239L781 240L780 239z"/>
<path style="fill:#939392; stroke:none;" d="M781.667 239.333L782.333 239.667L781.667 239.333M1065 239L1066 240L1065 239M1285 239L1286 240L1285 239M591.333 240.667L591.667 241.333L591.333 240.667z"/>
<path style="fill:#5b5b5a; stroke:none;" d="M785.667 240.333L786.333 240.667L785.667 240.333z"/>
<path style="fill:#939392; stroke:none;" d="M787.667 240.333L788.333 240.667L787.667 240.333M1014 240L1015 241L1014 240M1105.33 240.667L1105.67 241.333L1105.33 240.667M1172 240L1173 241L1172 240z"/>
<path style="fill:#5b5b5a; stroke:none;" d="M1284 240L1285 241L1284 240M726 241L727 242L726 241M791 241L792 242L791 241z"/>
<path style="fill:#939392; stroke:none;" d="M792.667 241.333L793.333 241.667L792.667 241.333M972 241L973 242L972 241z"/>
<path style="fill:#5b5b5a; stroke:none;" d="M1066 241L1067 242L1066 241z"/>
<path style="fill:#939392; stroke:none;" d="M1284 241L1284 327L1285 327L1285 268L1284 241z"/>
<path style="fill:#5b5b5a; stroke:none;" d="M1430 241L1430 254L1431 254L1430 241z"/>
<path style="fill:#939392; stroke:none;" d="M726 242L727 243L726 242z"/>
<path style="fill:#5b5b5a; stroke:none;" d="M796.667 242.333L797.333 242.667L796.667 242.333z"/>
<path style="fill:#939392; stroke:none;" d="M798.667 242.333L799.333 242.667L798.667 242.333z"/>
<path style="fill:#5b5b5a; stroke:none;" d="M972.333 242.667L972.667 243.333L972.333 242.667M1013 242L1014 243L1013 242z"/>
<path style="fill:#939392; stroke:none;" d="M1066 242L1067 243L1066 242z"/>
<path style="fill:#5b5b5a; stroke:none;" d="M1105 242L1106 243L1105 242M802 243L803 244L802 243z"/>
<path style="fill:#939392; stroke:none;" d="M803.667 243.333L804.333 243.667L803.667 243.333M1013 243C1014.04 247.853 1021.91 246 1026 246L1067 246L1067 245L1031 245L1013 243z"/>
<path style="fill:#5b5b5a; stroke:none;" d="M807 244L808 245L807 244z"/>
<path style="fill:#939392; stroke:none;" d="M808 244L809 245L808 244z"/>
<path style="fill:#5b5b5a; stroke:none;" d="M1067.33 244.667L1067.67 245.333L1067.33 244.667z"/>
<path style="fill:#939392; stroke:none;" d="M727 245L728 246L727 245z"/>
<path style="fill:#5b5b5a; stroke:none;" d="M811 245L812 246L811 245z"/>
<path style="fill:#939392; stroke:none;" d="M812 245L813 246L812 245M1106 245L1106 248L1107 248L1106 245z"/>
<path style="fill:#5b5b5a; stroke:none;" d="M814 246L815 247L814 246z"/>
<path style="fill:#939392; stroke:none;" d="M815 246L816 247L815 246M971.333 246.667L971.667 247.333L971.333 246.667z"/>
<path style="fill:#5b5b5a; stroke:none;" d="M592 247L592 327L593 327L593 272L592 247M817 247L818 248L817 247z"/>
<path style="fill:#939392; stroke:none;" d="M818 247L819 248L818 247M728 248L729 249L728 248M820 248L821 249L820 248z"/>
<path style="fill:#5b5b5a; stroke:none;" d="M971 248L971 251L972 251L971 248M1106.33 248.667L1106.67 249.333L1106.33 248.667z"/>
<path style="fill:#939392; stroke:none;" d="M1388 248L1388 249L1392 249L1388 248z"/>
<path style="fill:#5b5b5a; stroke:none;" d="M1392 248L1392 249L1403 249L1392 248z"/>
<path style="fill:#939392; stroke:none;" d="M1403 248L1403 249L1407 249L1403 248M822 249L823 250L822 249M1381.67 249.333L1382.33 249.667L1381.67 249.333z"/>
<path style="fill:#5b5b5a; stroke:none;" d="M1383 249L1384 250L1383 249M1410.67 249.333L1411.33 249.667L1410.67 249.333z"/>
<path style="fill:#939392; stroke:none;" d="M1412.67 249.333L1413.33 249.667L1412.67 249.333M729 250L730 251L729 250M824 250L825 251L824 250M1376.67 250.333L1377.33 250.667L1376.67 250.333z"/>
<path style="fill:#5b5b5a; stroke:none;" d="M1378 250L1379 251L1378 250M1416 250L1417 251L1416 250z"/>
<path style="fill:#939392; stroke:none;" d="M1417 250L1418 251L1417 250M826 251L827 252L826 251M1373 251L1374 252L1373 251z"/>
<path style="fill:#5b5b5a; stroke:none;" d="M1374 251L1375 252L1374 251M1420 251L1421 252L1420 251z"/>
<path style="fill:#939392; stroke:none;" d="M1421 251L1422 252L1421 251M730 252L731 253L730 252z"/>
<path style="fill:#5b5b5a; stroke:none;" d="M827 252L828 253L827 252z"/>
<path style="fill:#939392; stroke:none;" d="M1370 252L1371 253L1370 252z"/>
<path style="fill:#5b5b5a; stroke:none;" d="M1371 252L1372 253L1371 252M1423 252L1424 253L1423 252z"/>
<path style="fill:#939392; stroke:none;" d="M1424 252L1425 253L1424 252z"/>
<path style="fill:#5b5b5a; stroke:none;" d="M731 253L732 254L731 253z"/>
<path style="fill:#939392; stroke:none;" d="M829 253L830 254L829 253M1367 253L1368 254L1367 253z"/>
<path style="fill:#5b5b5a; stroke:none;" d="M1368 253L1369 254L1368 253M1426 253L1427 254L1426 253z"/>
<path style="fill:#939392; stroke:none;" d="M1427 253L1428 254L1427 253z"/>
<path style="fill:#5b5b5a; stroke:none;" d="M830 254L831 255L830 254z"/>
<path style="fill:#939392; stroke:none;" d="M1107 254L1107 270L1108 270L1107 254M1365 254L1366 255L1365 254z"/>
<path style="fill:#5b5b5a; stroke:none;" d="M1366 254L1367 255L1366 254M1429 254L1430 255L1429 254z"/>
<path style="fill:#939392; stroke:none;" d="M732 255L733 256L732 255M1363 255L1364 256L1363 255z"/>
<path style="fill:#5b5b5a; stroke:none;" d="M1364 255L1365 256L1364 255z"/>
<path style="fill:#939392; stroke:none;" d="M733 256L734 257L733 256M833 256L834 257L833 256M970 256L970 262L971 262L970 256z"/>
<path style="fill:#5b5b5a; stroke:none;" d="M1362 256L1363 257L1362 256z"/>
<path style="fill:#939392; stroke:none;" d="M734 257L735 258L734 257M834 257L835 258L834 257M1360 257L1361 258L1360 257z"/>
<path style="fill:#5b5b5a; stroke:none;" d="M735 258L736 259L735 258z"/>
<path style="fill:#939392; stroke:none;" d="M835 258L836 259L835 258z"/>
<path style="fill:#5b5b5a; stroke:none;" d="M1359 258L1360 259L1359 258z"/>
<path style="fill:#939392; stroke:none;" d="M736 259L737 260L736 259M1357 259L1358 260L1357 259M737 260L738 261L737 260M1356 260L1357 261L1356 260M738 261L739 262L738 261z"/>
<path style="fill:#5b5b5a; stroke:none;" d="M837 261L838 262L837 261z"/>
<path style="fill:#939392; stroke:none;" d="M1355 261L1356 262L1355 261z"/>
<path style="fill:#5b5b5a; stroke:none;" d="M740 262L741 263L740 262z"/>
<path style="fill:#939392; stroke:none;" d="M838 262L839 263L838 262M1354 262L1355 263L1354 262M741 263L742 264L741 263M1353 263L1354 264L1353 263z"/>
<path style="fill:#5b5b5a; stroke:none;" d="M743 264L744 265L743 264M839 264L840 265L839 264z"/>
<path style="fill:#939392; stroke:none;" d="M1352 264L1353 265L1352 264M744 265L745 266L744 265M840 265L841 266L840 265M746 266L747 267L746 266z"/>
<path style="fill:#5b5b5a; stroke:none;" d="M840 266L841 267L840 266M1351 266L1352 267L1351 266z"/>
<path style="fill:#939392; stroke:none;" d="M748 267L749 268L748 267z"/>
<path style="fill:#5b5b5a; stroke:none;" d="M749 267L750 268L749 267z"/>
<path style="fill:#939392; stroke:none;" d="M841 267L842 268L841 267z"/>
<path style="fill:#5b5b5a; stroke:none;" d="M971.333 267.667L971.667 268.333L971.333 267.667z"/>
<path style="fill:#939392; stroke:none;" d="M1350 267L1351 268L1350 267M750 268L751 269L750 268z"/>
<path style="fill:#5b5b5a; stroke:none;" d="M751 268L752 269L751 268M841 268L842 269L841 268z"/>
<path style="fill:#939392; stroke:none;" d="M754 269L755 270L754 269z"/>
<path style="fill:#5b5b5a; stroke:none;" d="M755 269L756 270L755 269z"/>
<path style="fill:#939392; stroke:none;" d="M971.333 269.667L971.667 270.333L971.333 269.667z"/>
<path style="fill:#5b5b5a; stroke:none;" d="M1013 269L1013 270L1107 270L1078 269L1013 269z"/>
<path style="fill:#939392; stroke:none;" d="M757 270L758 271L757 270z"/>
<path style="fill:#5b5b5a; stroke:none;" d="M758 270L759 271L758 270z"/>
<path style="fill:#939392; stroke:none;" d="M842 270L843 271L842 270M1348 270L1349 271L1348 270M761 271L762 272L761 271z"/>
<path style="fill:#5b5b5a; stroke:none;" d="M762.667 271.333L763.333 271.667L762.667 271.333z"/>
<path style="fill:#939392; stroke:none;" d="M1013 271L1014 272L1013 271M765.667 272.333L766.333 272.667L765.667 272.333z"/>
<path style="fill:#5b5b5a; stroke:none;" d="M767.667 272.333L768.333 272.667L767.667 272.333z"/>
<path style="fill:#939392; stroke:none;" d="M1347 272L1348 273L1347 272M771.667 273.333L772.333 273.667L771.667 273.333z"/>
<path style="fill:#5b5b5a; stroke:none;" d="M773 273L774 274L773 273z"/>
<path style="fill:#939392; stroke:none;" d="M843 273L844 274L843 273z"/>
<path style="fill:#5b5b5a; stroke:none;" d="M1347 273L1348 274L1347 273M1400.67 273.333L1401.33 273.667L1400.67 273.333z"/>
<path style="fill:#939392; stroke:none;" d="M1402 273L1402 274L1412 274L1402 273z"/>
<path style="fill:#5b5b5a; stroke:none;" d="M1412 273L1412 274L1415 274L1412 273z"/>
<path style="fill:#939392; stroke:none;" d="M776.667 274.333L777.333 274.667L776.667 274.333z"/>
<path style="fill:#5b5b5a; stroke:none;" d="M778.667 274.333L779.333 274.667L778.667 274.333M843.333 274.667L843.667 275.333L843.333 274.667M972 274L973 275L972 274M1014 274L1015 275L1014 274M1395 274L1396 275L1395 274z"/>
<path style="fill:#939392; stroke:none;" d="M1396 274L1397 275L1396 274z"/>
<path style="fill:#ffffff; stroke:none;" d="M1430 276C1423.25 275.467 1416.81 274.003 1410 274C1405.72 273.998 1401.21 273.606 1397 274.519C1387.81 276.513 1379.64 287.47 1388.23 295.606C1396.01 302.982 1422.6 303.579 1428.97 293.61C1431.65 289.414 1430 280.831 1430 276z"/>
<path style="fill:#939392; stroke:none;" d="M1419.67 274.333L1420.33 274.667L1419.67 274.333z"/>
<path style="fill:#5b5b5a; stroke:none;" d="M1421.67 274.333L1422.33 274.667L1421.67 274.333z"/>
<path style="fill:#939392; stroke:none;" d="M782.667 275.333L783.333 275.667L782.667 275.333z"/>
<path style="fill:#5b5b5a; stroke:none;" d="M784 275L785 276L784 275z"/>
<path style="fill:#939392; stroke:none;" d="M972 275L973 276L972 275M1346 275L1347 276L1346 275z"/>
<path style="fill:#5b5b5a; stroke:none;" d="M1392 275L1393 276L1392 275z"/>
<path style="fill:#939392; stroke:none;" d="M1393 275L1394 276L1393 275M1425.67 275.333L1426.33 275.667L1425.67 275.333z"/>
<path style="fill:#5b5b5a; stroke:none;" d="M1427 275L1428 276L1427 275z"/>
<path style="fill:#939392; stroke:none;" d="M787.667 276.333L788.333 276.667L787.667 276.333z"/>
<path style="fill:#5b5b5a; stroke:none;" d="M789.667 276.333L790.333 276.667L789.667 276.333z"/>
<path style="fill:#939392; stroke:none;" d="M1015 276L1016 277L1015 276z"/>
<path style="fill:#5b5b5a; stroke:none;" d="M1346 276L1347 277L1346 276M1390 276L1391 277L1390 276M1430 276L1430 294L1431 294L1430 276z"/>
<path style="fill:#939392; stroke:none;" d="M793.667 277.333L794.333 277.667L793.667 277.333z"/>
<path style="fill:#5b5b5a; stroke:none;" d="M795 277L796 278L795 277z"/>
<path style="fill:#939392; stroke:none;" d="M1389 277L1390 278L1389 277M797 278L798 279L797 278z"/>
<path style="fill:#5b5b5a; stroke:none;" d="M798 278L799 279L798 278z"/>
<path style="fill:#939392; stroke:none;" d="M844 278L844 287L845 287L844 278z"/>
<path style="fill:#5b5b5a; stroke:none;" d="M973 278L974 279L973 278z"/>
<path style="fill:#939392; stroke:none;" d="M1016 278L1017 279L1016 278M1345.33 278.667L1345.67 279.333L1345.33 278.667z"/>
<path style="fill:#5b5b5a; stroke:none;" d="M800 279L801 280L800 279z"/>
<path style="fill:#939392; stroke:none;" d="M973 279L974 280L973 279M801 280L802 281L801 280z"/>
<path style="fill:#5b5b5a; stroke:none;" d="M1017 280L1018 281L1017 280M1345.33 280.667L1345.67 281.333L1345.33 280.667z"/>
<path style="fill:#939392; stroke:none;" d="M1386 280L1387 281L1386 280z"/>
<path style="fill:#5b5b5a; stroke:none;" d="M974 281L975 282L974 281z"/>
<path style="fill:#939392; stroke:none;" d="M1018 281L1019 282L1018 281z"/>
<path style="fill:#5b5b5a; stroke:none;" d="M1385 281L1386 282L1385 281z"/>
<path style="fill:#939392; stroke:none;" d="M803 282L804 283L803 282M974 282L975 283L974 282z"/>
<path style="fill:#5b5b5a; stroke:none;" d="M804 283L805 284L804 283z"/>
<path style="fill:#939392; stroke:none;" d="M923 283L924 284L923 283z"/>
<path style="fill:#5b5b5a; stroke:none;" d="M1019 283L1020 284L1019 283z"/>
<path style="fill:#939392; stroke:none;" d="M741 284L742 285L741 284M804 284L805 285L804 284z"/>
<path style="fill:#5b5b5a; stroke:none;" d="M923 284L924 285L923 284M975 284L976 285L975 284M1020 284L1021 285L1020 284M1072 284L1073 285L1072 284M1384 284L1385 285L1384 284z"/>
<path style="fill:#939392; stroke:none;" d="M740 285L741 286L740 285M743 285L744 286L743 285M975 285L976 286L975 285M1021 285L1022 286L1021 285z"/>
<path style="fill:#5b5b5a; stroke:none;" d="M1071 285L1072 286L1071 285z"/>
<path style="fill:#939392; stroke:none;" d="M1384 285L1384 289L1385 289L1384 285M739 286L740 287L739 286M745 286L746 287L745 286M924 286L925 287L924 286M1022 286L1023 287L1022 286z"/>
<path style="fill:#5b5b5a; stroke:none;" d="M1070 286L1071 287L1070 286z"/>
<path style="fill:#939392; stroke:none;" d="M1075 286L1076 287L1075 286z"/>
<path style="fill:#5b5b5a; stroke:none;" d="M739 287L740 288L739 287z"/>
<path style="fill:#939392; stroke:none;" d="M747 287L748 288L747 287M976 287L977 288L976 287M1023 287L1024 288L1023 287z"/>
<path style="fill:#5b5b5a; stroke:none;" d="M1069 287L1070 288L1069 287z"/>
<path style="fill:#939392; stroke:none;" d="M1076 287L1077 288L1076 287M738 288L739 289L738 288M749 288L750 289L749 288M925 288L926 289L925 288z"/>
<path style="fill:#5b5b5a; stroke:none;" d="M1024 288L1025 289L1024 288M1077 288L1078 289L1077 288z"/>
<path style="fill:#939392; stroke:none;" d="M751 289L752 290L751 289M804 289L805 290L804 289M926 289L927 290L926 289M977 289L978 290L977 289z"/>
<path style="fill:#5b5b5a; stroke:none;" d="M1025 289L1026 290L1025 289z"/>
<path style="fill:#939392; stroke:none;" d="M1066 289L1067 290L1066 289z"/>
<path style="fill:#5b5b5a; stroke:none;" d="M1078 289L1079 290L1078 289M1384 289L1385 290L1384 289M737 290L738 291L737 290M753 290L754 291L753 290M804 290L805 291L804 290M843 290L844 291L843 290z"/>
<path style="fill:#939392; stroke:none;" d="M927 290L928 291L927 290M1027 290L1028 291L1027 290z"/>
<path style="fill:#5b5b5a; stroke:none;" d="M1065 290L1066 291L1065 290z"/>
<path style="fill:#939392; stroke:none;" d="M736 291L737 292L736 291z"/>
<path style="fill:#5b5b5a; stroke:none;" d="M755 291L756 292L755 291z"/>
<path style="fill:#939392; stroke:none;" d="M756 291L757 292L756 291M843.333 291.667L843.667 292.333L843.333 291.667z"/>
<path style="fill:#5b5b5a; stroke:none;" d="M928 291L929 292L928 291z"/>
<path style="fill:#939392; stroke:none;" d="M929 291L930 292L929 291M955 291L956 292L955 291z"/>
<path style="fill:#5b5b5a; stroke:none;" d="M956 291L957 292L956 291z"/>
<path style="fill:#939392; stroke:none;" d="M958 291L958 326L959 326L958 291M978 291L979 292L978 291M1029 291L1030 292L1029 291z"/>
<path style="fill:#5b5b5a; stroke:none;" d="M1063 291L1064 292L1063 291z"/>
<path style="fill:#939392; stroke:none;" d="M1081 291L1082 292L1081 291M758 292L759 293L758 292z"/>
<path style="fill:#5b5b5a; stroke:none;" d="M803 292L804 293L803 292z"/>
<path style="fill:#939392; stroke:none;" d="M931.667 292.333L932.333 292.667L931.667 292.333M951 292L952 293L951 292z"/>
<path style="fill:#5b5b5a; stroke:none;" d="M952 292L953 293L952 292M1030 292L1031 293L1030 292z"/>
<path style="fill:#939392; stroke:none;" d="M1031 292L1032 293L1031 292M1060 292L1061 293L1060 292z"/>
<path style="fill:#5b5b5a; stroke:none;" d="M1061 292L1062 293L1061 292z"/>
<path style="fill:#939392; stroke:none;" d="M1082 292L1083 293L1082 292z"/>
<path style="fill:#5b5b5a; stroke:none;" d="M1385 292L1386 293L1385 292M735 293L736 294L735 293M760 293L761 294L760 293z"/>
<path style="fill:#939392; stroke:none;" d="M761 293L762 294L761 293z"/>
<path style="fill:#5b5b5a; stroke:none;" d="M802 293L803 294L802 293M934.667 293.333L935.333 293.667L934.667 293.333z"/>
<path style="fill:#939392; stroke:none;" d="M936 293L936 294L946 294L936 293z"/>
<path style="fill:#5b5b5a; stroke:none;" d="M946.667 293.333L947.333 293.667L946.667 293.333z"/>
<path style="fill:#939392; stroke:none;" d="M979 293L980 294L979 293M1033 293L1034 294L1033 293M1058 293L1059 294L1058 293z"/>
<path style="fill:#5b5b5a; stroke:none;" d="M1083 293L1084 294L1083 293z"/>
<path style="fill:#939392; stroke:none;" d="M734 294L735 295L734 294z"/>
<path style="fill:#5b5b5a; stroke:none;" d="M763 294L764 295L763 294z"/>
<path style="fill:#939392; stroke:none;" d="M764 294L765 295L764 294M800 294L801 295L800 294z"/>
<path style="fill:#5b5b5a; stroke:none;" d="M842 294L843 295L842 294M880.333 294.667L880.667 295.333L880.333 294.667M980 294L981 295L980 294M1035 294L1036 295L1035 294z"/>
<path style="fill:#939392; stroke:none;" d="M1036.67 294.333L1037.33 294.667L1036.67 294.333M1054 294L1055 295L1054 294z"/>
<path style="fill:#5b5b5a; stroke:none;" d="M1055 294L1056 295L1055 294M1084 294L1085 295L1084 294M1345 294L1346 295L1345 294M1386 294L1387 295L1386 294M1429 294L1430 295L1429 294M766 295L767 296L766 295z"/>
<path style="fill:#939392; stroke:none;" d="M767 295L768 296L767 295z"/>
<path style="fill:#5b5b5a; stroke:none;" d="M799 295L800 296L799 295z"/>
<path style="fill:#939392; stroke:none;" d="M842 295L843 296L842 295z"/>
<path style="fill:#5b5b5a; stroke:none;" d="M1040.67 295.333L1041.33 295.667L1040.67 295.333z"/>
<path style="fill:#939392; stroke:none;" d="M1042 295L1042 296L1049 296L1042 295z"/>
<path style="fill:#5b5b5a; stroke:none;" d="M1049.67 295.333L1050.33 295.667L1049.67 295.333z"/>
<path style="fill:#939392; stroke:none;" d="M1345.33 295.667L1345.67 296.333L1345.33 295.667z"/>
<path style="fill:#5b5b5a; stroke:none;" d="M1387 295L1388 296L1387 295z"/>
<path style="fill:#939392; stroke:none;" d="M1427 295L1428 296L1427 295z"/>
<path style="fill:#5b5b5a; stroke:none;" d="M733 296L734 297L733 296M769 296L770 297L769 296z"/>
<path style="fill:#939392; stroke:none;" d="M770.667 296.333L771.333 296.667L770.667 296.333M796 296L797 297L796 296z"/>
<path style="fill:#5b5b5a; stroke:none;" d="M797 296L798 297L797 296z"/>
<path style="fill:#939392; stroke:none;" d="M880.333 296.667L880.667 297.333L880.333 296.667M981 296L982 297L981 296M1087 296L1088 297L1087 296z"/>
<path style="fill:#5b5b5a; stroke:none;" d="M1388 296L1389 297L1388 296z"/>
<path style="fill:#939392; stroke:none;" d="M1425 296L1426 297L1425 296M732 297L733 298L732 297z"/>
<path style="fill:#5b5b5a; stroke:none;" d="M774 297L775 298L774 297z"/>
<path style="fill:#939392; stroke:none;" d="M775 297L775 298L778 298L775 297M792.667 297.333L793.333 297.667L792.667 297.333z"/>
<path style="fill:#5b5b5a; stroke:none;" d="M794 297L795 298L794 297M841 297L842 298L841 297z"/>
<path style="fill:#939392; stroke:none;" d="M1088 297L1089 298L1088 297M1390 297L1391 298L1390 297z"/>
<path style="fill:#5b5b5a; stroke:none;" d="M1423 297L1424 298L1423 297M783 298L783 299L788 299L783 298z"/>
<path style="fill:#939392; stroke:none;" d="M841 298L842 299L841 298M982 298L983 299L982 298z"/>
<path style="fill:#5b5b5a; stroke:none;" d="M1089 298L1090 299L1089 298z"/>
<path style="fill:#939392; stroke:none;" d="M1392 298L1393 299L1392 298M1420 298L1421 299L1420 298z"/>
<path style="fill:#5b5b5a; stroke:none;" d="M1421 298L1422 299L1421 298M731 299L732 300L731 299M881.333 299.667L881.667 300.333L881.333 299.667z"/>
<path style="fill:#939392; stroke:none;" d="M983 299L984 300L983 299z"/>
<path style="fill:#5b5b5a; stroke:none;" d="M1090 299L1091 300L1090 299M1346 299L1347 300L1346 299M1394 299L1395 300L1394 299z"/>
<path style="fill:#939392; stroke:none;" d="M1395 299L1396 300L1395 299M1416.67 299.333L1417.33 299.667L1416.67 299.333M730 300L731 301L730 300M840 300L841 301L840 300z"/>
<path style="fill:#5b5b5a; stroke:none;" d="M984 300L985 301L984 300z"/>
<path style="fill:#939392; stroke:none;" d="M1346 300L1347 301L1346 300z"/>
<path style="fill:#5b5b5a; stroke:none;" d="M1398 300L1399 301L1398 300z"/>
<path style="fill:#939392; stroke:none;" d="M1399 300L1399 301L1402 301L1399 300M1409 300L1409 301L1412 301L1409 300z"/>
<path style="fill:#5b5b5a; stroke:none;" d="M1412.67 300.333L1413.33 300.667L1412.67 300.333z"/>
<path style="fill:#939392; stroke:none;" d="M881 301L882 302L881 301M1093 301L1094 302L1093 301M1493 301L1494 302L1493 301z"/>
<path style="fill:#5b5b5a; stroke:none;" d="M1494 301L1495 302L1494 301z"/>
<path style="fill:#1d1f1d; stroke:none;" d="M1495 301.548C1479.23 304.973 1484.15 329.688 1500 326.652C1516.38 323.514 1511.16 298.037 1495 301.548z"/>
<path style="fill:#5b5b5a; stroke:none;" d="M1500 301L1501 302L1500 301z"/>
<path style="fill:#939392; stroke:none;" d="M1501 301L1502 302L1501 301z"/>
<path style="fill:#5b5b5a; stroke:none;" d="M729 302L730 303L729 302z"/>
<path style="fill:#939392; stroke:none;" d="M839 302L840 303L839 302M985 302L986 303L985 302M1094 302L1095 303L1094 302z"/>
<path style="fill:#5b5b5a; stroke:none;" d="M1347 302L1348 303L1347 302z"/>
<path style="fill:#939392; stroke:none;" d="M1491 302L1492 303L1491 302z"/>
<path style="fill:#5b5b5a; stroke:none;" d="M1503 302L1504 303L1503 302z"/>
<path style="fill:#939392; stroke:none;" d="M728 303L729 304L728 303z"/>
<path style="fill:#5b5b5a; stroke:none;" d="M882 303L883 304L882 303z"/>
<path style="fill:#939392; stroke:none;" d="M986 303L987 304L986 303z"/>
<path style="fill:#5b5b5a; stroke:none;" d="M1095 303L1096 304L1095 303z"/>
<path style="fill:#939392; stroke:none;" d="M1347 303L1348 304L1347 303z"/>
<path style="fill:#5b5b5a; stroke:none;" d="M1495 303L1496 304L1495 303z"/>
<path style="fill:#939392; stroke:none;" d="M1496 303L1496 304L1500 304L1496 303z"/>
<path style="fill:#5b5b5a; stroke:none;" d="M1500 303L1501 304L1500 303z"/>
<path style="fill:#939392; stroke:none;" d="M1505 303L1506 304L1505 303M838 304L839 305L838 304M882 304L883 305L882 304z"/>
<path style="fill:#5b5b5a; stroke:none;" d="M987 304L988 305L987 304M1096 304L1097 305L1096 304z"/>
<path style="fill:#939392; stroke:none;" d="M1488 304L1489 305L1488 304z"/>
<path style="fill:#5b5b5a; stroke:none;" d="M1492 304L1493 305L1492 304z"/>
<path style="fill:#ffffff; stroke:none;" d="M1493.09 304.858C1481.15 310.142 1489.85 328.665 1501.98 323.333C1514.35 317.898 1505.44 299.396 1493.09 304.858z"/>
<path style="fill:#939392; stroke:none;" d="M1502 304L1503 305L1502 304z"/>
<path style="fill:#5b5b5a; stroke:none;" d="M1506 304L1507 305L1506 304M727 305L728 306L727 305M837 305L838 306L837 305M988 305L989 306L988 305z"/>
<path style="fill:#939392; stroke:none;" d="M1348 305L1349 306L1348 305M1491 305L1492 306L1491 305z"/>
<path style="fill:#5b5b5a; stroke:none;" d="M1507 305L1508 306L1507 305z"/>
<path style="fill:#939392; stroke:none;" d="M726 306L727 307L726 306M883 306L884 307L883 306z"/>
<path style="fill:#5b5b5a; stroke:none;" d="M989 306L990 307L989 306z"/>
<path style="fill:#939392; stroke:none;" d="M1099 306L1100 307L1099 306z"/>
<path style="fill:#1d1f1d; stroke:none;" d="M1492 306L1492 322L1494 322L1494 316L1503 322C1500.52 313.045 1504.05 306.109 1492 306z"/>
<path style="fill:#5b5b5a; stroke:none;" d="M1499 306L1500 307L1499 306z"/>
<path style="fill:#939392; stroke:none;" d="M1500 306L1501 307L1500 306z"/>
<path style="fill:#5b5b5a; stroke:none;" d="M1505 306L1506 307L1505 306z"/>
<path style="fill:#939392; stroke:none;" d="M1508 306L1509 307L1508 306M836 307L837 308L836 307z"/>
<path style="fill:#5b5b5a; stroke:none;" d="M990 307L991 308L990 307z"/>
<path style="fill:#939392; stroke:none;" d="M1100 307L1101 308L1100 307M1349 307L1350 308L1349 307z"/>
<path style="fill:#5b5b5a; stroke:none;" d="M1486 307L1487 308L1486 307z"/>
<path style="fill:#939392; stroke:none;" d="M1489 307L1490 308L1489 307z"/>
<path style="fill:#5b5b5a; stroke:none;" d="M1501 307L1502 308L1501 307M725 308L726 309L725 308z"/>
<path style="fill:#939392; stroke:none;" d="M835 308L836 309L835 308z"/>
<path style="fill:#5b5b5a; stroke:none;" d="M884 308L885 309L884 308M1350 308L1351 309L1350 308M1488 308L1489 309L1488 308z"/>
<path style="fill:#939392; stroke:none;" d="M1495 308L1495 309L1498 309L1495 308M1502 308L1503 309L1502 308z"/>
<path style="fill:#5b5b5a; stroke:none;" d="M1509 308L1510 309L1509 308z"/>
<path style="fill:#939392; stroke:none;" d="M724 309L725 310L724 309z"/>
<path style="fill:#5b5b5a; stroke:none;" d="M834 309L835 310L834 309M1098 309L1099 310L1098 309M1485 309L1486 310L1485 309M1494 309L1494 313L1495 313L1494 309z"/>
<path style="fill:#ffffff; stroke:none;" d="M1495 309L1495 313L1500 312L1500 310L1495 309z"/>
<path style="fill:#939392; stroke:none;" d="M1499 309L1500 310L1499 309z"/>
<path style="fill:#5b5b5a; stroke:none;" d="M1502 309L1503 310L1502 309M1507 309L1508 310L1507 309M833 310L834 311L833 310z"/>
<path style="fill:#939392; stroke:none;" d="M885 310L886 311L885 310z"/>
<path style="fill:#5b5b5a; stroke:none;" d="M993 310L994 311L993 310M1097 310L1098 311L1097 310z"/>
<path style="fill:#939392; stroke:none;" d="M1351 310L1352 311L1351 310z"/>
<path style="fill:#5b5b5a; stroke:none;" d="M1487 310L1488 311L1487 310z"/>
<path style="fill:#939392; stroke:none;" d="M1510 310L1511 311L1510 310z"/>
<path style="fill:#5b5b5a; stroke:none;" d="M723 311L724 312L723 311M832 311L833 312L832 311M994 311L995 312L994 311z"/>
<path style="fill:#939392; stroke:none;" d="M1096 311L1097 312L1096 311z"/>
<path style="fill:#5b5b5a; stroke:none;" d="M1352 311L1353 312L1352 311z"/>
<path style="fill:#939392; stroke:none;" d="M1487 311L1488 312L1487 311z"/>
<path style="fill:#5b5b5a; stroke:none;" d="M1502 311L1503 312L1502 311M1510.33 311.667L1510.67 312.333L1510.33 311.667z"/>
<path style="fill:#939392; stroke:none;" d="M722.333 312.667L722.667 313.333L722.333 312.667M886 312L887 313L886 312z"/>
<path style="fill:#5b5b5a; stroke:none;" d="M995 312L996 313L995 312z"/>
<path style="fill:#939392; stroke:none;" d="M1484 312L1484 316L1485 316L1484 312M1499 312L1500 313L1499 312M1502 312L1503 313L1502 312z"/>
<path style="fill:#5b5b5a; stroke:none;" d="M1508 312L1508 316L1509 316L1508 312M830 313L831 314L830 313z"/>
<path style="fill:#939392; stroke:none;" d="M887 313L888 314L887 313M996 313L997 314L996 313z"/>
<path style="fill:#5b5b5a; stroke:none;" d="M1093 313L1094 314L1093 313z"/>
<path style="fill:#939392; stroke:none;" d="M1495 313L1495 314L1498 314L1495 313z"/>
<path style="fill:#5b5b5a; stroke:none;" d="M1498 313L1499 314L1498 313z"/>
<path style="fill:#939392; stroke:none;" d="M724 314L725 315L724 314z"/>
<path style="fill:#5b5b5a; stroke:none;" d="M829 314L830 315L829 314M888 314L889 315L888 314z"/>
<path style="fill:#939392; stroke:none;" d="M997 314L998 315L997 314M1092 314L1093 315L1092 314M1354 314L1355 315L1354 314z"/>
<path style="fill:#5b5b5a; stroke:none;" d="M726 315L727 316L726 315M828 315L829 316L828 315M999 315L1000 316L999 315M1090 315L1091 316L1090 315z"/>
<path style="fill:#939392; stroke:none;" d="M1355 315L1356 316L1355 315z"/>
<path style="fill:#5b5b5a; stroke:none;" d="M1429 315L1430 327L1431 327L1429 315z"/>
<path style="fill:#939392; stroke:none;" d="M1500 315L1501 316L1500 315z"/>
<path style="fill:#5b5b5a; stroke:none;" d="M1510.33 315.667L1510.67 316.333L1510.33 315.667z"/>
<path style="fill:#939392; stroke:none;" d="M727 316L728 317L727 316M827 316L828 317L827 316M1000 316L1001 317L1000 316M1089 316L1090 317L1089 316M1356 316L1357 317L1356 316z"/>
<path style="fill:#5b5b5a; stroke:none;" d="M1428 316L1429 317L1428 316z"/>
<path style="fill:#939392; stroke:none;" d="M1487 316L1488 317L1487 316z"/>
<path style="fill:#5b5b5a; stroke:none;" d="M1494 316L1494 322L1495 322L1494 316z"/>
<path style="fill:#939392; stroke:none;" d="M729 317L730 318L729 317M826 317L827 318L826 317M1001 317L1002 318L1001 317z"/>
<path style="fill:#5b5b5a; stroke:none;" d="M1087 317L1088 318L1087 317z"/>
<path style="fill:#939392; stroke:none;" d="M1357 317L1358 318L1357 317M1427 317L1428 318L1427 317z"/>
<path style="fill:#5b5b5a; stroke:none;" d="M1487 317L1488 318L1487 317M1498 317L1499 318L1498 317z"/>
<path style="fill:#939392; stroke:none;" d="M1501 317L1502 318L1501 317M1510 317L1511 318L1510 317M731 318L732 319L731 318z"/>
<path style="fill:#5b5b5a; stroke:none;" d="M824 318L825 319L824 318z"/>
<path style="fill:#939392; stroke:none;" d="M1003 318L1004 319L1003 318M1086 318L1087 319L1086 318z"/>
<path style="fill:#5b5b5a; stroke:none;" d="M1425 318L1426 319L1425 318M1485 318L1486 319L1485 318z"/>
<path style="fill:#939392; stroke:none;" d="M1507 318L1508 319L1507 318M733 319L734 320L733 319M823 319L824 320L823 319z"/>
<path style="fill:#5b5b5a; stroke:none;" d="M893 319L894 320L893 319M1005 319L1006 320L1005 319M1084 319L1085 320L1084 319M1360 319L1361 320L1360 319z"/>
<path style="fill:#939392; stroke:none;" d="M1424 319L1425 320L1424 319M1485 319L1486 320L1485 319M1488 319L1489 320L1488 319M1499 319L1500 320L1499 319M1502 319L1503 320L1502 319z"/>
<path style="fill:#5b5b5a; stroke:none;" d="M1509 319L1510 320L1509 319z"/>
<path style="fill:#939392; stroke:none;" d="M735 320L736 321L735 320z"/>
<path style="fill:#5b5b5a; stroke:none;" d="M736 320L737 321L736 320M821 320L822 321L821 320z"/>
<path style="fill:#939392; stroke:none;" d="M894 320L895 321L894 320M1006 320L1007 321L1006 320z"/>
<path style="fill:#5b5b5a; stroke:none;" d="M1082 320L1083 321L1082 320z"/>
<path style="fill:#939392; stroke:none;" d="M1361 320L1362 321L1361 320z"/>
<path style="fill:#5b5b5a; stroke:none;" d="M1422 320L1423 321L1422 320M1486 320L1487 321L1486 320M1506 320L1507 321L1506 320z"/>
<path style="fill:#939392; stroke:none;" d="M737 321L738 322L737 321z"/>
<path style="fill:#5b5b5a; stroke:none;" d="M738 321L739 322L738 321M819 321L820 322L819 321z"/>
<path style="fill:#939392; stroke:none;" d="M820 321L821 322L820 321M895 321L896 322L895 321M1008 321L1009 322L1008 321z"/>
<path style="fill:#5b5b5a; stroke:none;" d="M1080 321L1081 322L1080 321z"/>
<path style="fill:#939392; stroke:none;" d="M1081 321L1082 322L1081 321z"/>
<path style="fill:#5b5b5a; stroke:none;" d="M1363 321L1364 322L1363 321z"/>
<path style="fill:#939392; stroke:none;" d="M1421 321L1422 322L1421 321M1500 321L1501 322L1500 321z"/>
<path style="fill:#5b5b5a; stroke:none;" d="M1503 321L1504 322L1503 321M1505 321L1506 322L1505 321z"/>
<path style="fill:#939392; stroke:none;" d="M1508 321L1509 322L1508 321M740 322L741 323L740 322z"/>
<path style="fill:#5b5b5a; stroke:none;" d="M741 322L742 323L741 322M817 322L818 323L817 322z"/>
<path style="fill:#939392; stroke:none;" d="M818 322L819 323L818 322M897 322L898 323L897 322M1010 322L1011 323L1010 322z"/>
<path style="fill:#5b5b5a; stroke:none;" d="M1078 322L1079 323L1078 322z"/>
<path style="fill:#939392; stroke:none;" d="M1079 322L1080 323L1079 322M1364 322L1365 323L1364 322z"/>
<path style="fill:#5b5b5a; stroke:none;" d="M1419 322L1420 323L1419 322z"/>
<path style="fill:#939392; stroke:none;" d="M1487 322L1488 323L1487 322z"/>
<path style="fill:#5b5b5a; stroke:none;" d="M1504 322L1505 323L1504 322M1507 322L1508 323L1507 322z"/>
<path style="fill:#939392; stroke:none;" d="M743 323L744 324L743 323z"/>
<path style="fill:#5b5b5a; stroke:none;" d="M744 323L745 324L744 323M815 323L816 324L815 323z"/>
<path style="fill:#939392; stroke:none;" d="M816 323L817 324L816 323z"/>
<path style="fill:#5b5b5a; stroke:none;" d="M899 323L900 324L899 323z"/>
<path style="fill:#939392; stroke:none;" d="M1012 323L1013 324L1012 323z"/>
<path style="fill:#5b5b5a; stroke:none;" d="M1076 323L1077 324L1076 323z"/>
<path style="fill:#939392; stroke:none;" d="M1366 323L1367 324L1366 323z"/>
<path style="fill:#5b5b5a; stroke:none;" d="M1417 323L1418 324L1417 323z"/>
<path style="fill:#939392; stroke:none;" d="M1488 323L1489 324L1488 323z"/>
<path style="fill:#5b5b5a; stroke:none;" d="M1492 323L1493 324L1492 323z"/>
<path style="fill:#939392; stroke:none;" d="M1502 323L1503 324L1502 323z"/>
<path style="fill:#5b5b5a; stroke:none;" d="M1506 323L1507 324L1506 323z"/>
<path style="fill:#939392; stroke:none;" d="M746 324L747 325L746 324z"/>
<path style="fill:#5b5b5a; stroke:none;" d="M747 324L748 325L747 324M813 324L814 325L813 324z"/>
<path style="fill:#939392; stroke:none;" d="M814 324L815 325L814 324M900 324L901 325L900 324z"/>
<path style="fill:#5b5b5a; stroke:none;" d="M901 324L902 325L901 324z"/>
<path style="fill:#939392; stroke:none;" d="M1014 324L1015 325L1014 324z"/>
<path style="fill:#5b5b5a; stroke:none;" d="M1015 324L1016 325L1015 324M1073 324L1074 325L1073 324z"/>
<path style="fill:#939392; stroke:none;" d="M1074 324L1075 325L1074 324M1368 324L1369 325L1368 324z"/>
<path style="fill:#5b5b5a; stroke:none;" d="M1415 324L1416 325L1415 324z"/>
<path style="fill:#939392; stroke:none;" d="M1489 324L1490 325L1489 324z"/>
<path style="fill:#5b5b5a; stroke:none;" d="M1494 324L1495 325L1494 324z"/>
<path style="fill:#939392; stroke:none;" d="M1495.67 324.333L1496.33 324.667L1495.67 324.333M1498.67 324.333L1499.33 324.667L1498.67 324.333z"/>
<path style="fill:#5b5b5a; stroke:none;" d="M1500 324L1501 325L1500 324M1505 324L1506 325L1505 324z"/>
<path style="fill:#939392; stroke:none;" d="M749 325L750 326L749 325z"/>
<path style="fill:#5b5b5a; stroke:none;" d="M750 325L751 326L750 325M810 325L811 326L810 325z"/>
<path style="fill:#939392; stroke:none;" d="M811 325L812 326L811 325z"/>
<path style="fill:#5b5b5a; stroke:none;" d="M903 325L904 326L903 325z"/>
<path style="fill:#939392; stroke:none;" d="M1017 325L1018 326L1017 325M1071 325L1072 326L1071 325M1370 325L1371 326L1370 325z"/>
<path style="fill:#5b5b5a; stroke:none;" d="M1371 325L1372 326L1371 325z"/>
<path style="fill:#939392; stroke:none;" d="M1413 325L1414 326L1413 325z"/>
<path style="fill:#5b5b5a; stroke:none;" d="M1491 325L1492 326L1491 325z"/>
<path style="fill:#939392; stroke:none;" d="M1504 325L1505 326L1504 325M753.667 326.333L754.333 326.667L753.667 326.333z"/>
<path style="fill:#5b5b5a; stroke:none;" d="M755 326L756 327L755 326M807 326L808 327L807 326z"/>
<path style="fill:#939392; stroke:none;" d="M808 326L809 327L808 326M905 326L906 327L905 326z"/>
<path style="fill:#5b5b5a; stroke:none;" d="M906 326L907 327L906 326M954 326L955 327L954 326z"/>
<path style="fill:#939392; stroke:none;" d="M955 326L956 327L955 326M1019.67 326.333L1020.33 326.667L1019.67 326.333z"/>
<path style="fill:#5b5b5a; stroke:none;" d="M1021 326L1022 327L1021 326M1067 326L1068 327L1067 326z"/>
<path style="fill:#939392; stroke:none;" d="M1068 326L1069 327L1068 326M1373 326L1374 327L1373 326z"/>
<path style="fill:#5b5b5a; stroke:none;" d="M1374 326L1375 327L1374 326z"/>
<path style="fill:#939392; stroke:none;" d="M1410 326L1411 327L1410 326M1493 326L1494 327L1493 326z"/>
<path style="fill:#5b5b5a; stroke:none;" d="M1501 326L1502 327L1501 326z"/>
<path style="fill:#939392; stroke:none;" d="M1502 326L1503 327L1502 326M758 327L759 328L758 327z"/>
<path style="fill:#5b5b5a; stroke:none;" d="M759.667 327.333L760.333 327.667L759.667 327.333M804 327L805 328L804 327z"/>
<path style="fill:#939392; stroke:none;" d="M805 327L806 328L805 327M908.667 327.333L909.333 327.667L908.667 327.333z"/>
<path style="fill:#5b5b5a; stroke:none;" d="M910 327L911 328L910 327M949.667 327.333L950.333 327.667L949.667 327.333z"/>
<path style="fill:#939392; stroke:none;" d="M951 327L952 328L951 327M1023 327L1024 328L1023 327z"/>
<path style="fill:#5b5b5a; stroke:none;" d="M1024 327L1025 328L1024 327M1063 327L1064 328L1063 327z"/>
<path style="fill:#939392; stroke:none;" d="M1064.67 327.333L1065.33 327.667L1064.67 327.333M1376 327L1377 328L1376 327z"/>
<path style="fill:#5b5b5a; stroke:none;" d="M1377 327L1378 328L1377 327M1406 327L1407 328L1406 327z"/>
<path style="fill:#939392; stroke:none;" d="M1407 327L1408 328L1407 327M763 328L763 329L766 329L763 328z"/>
<path style="fill:#5b5b5a; stroke:none;" d="M766.667 328.333L767.333 328.667L766.667 328.333M799 328L800 329L799 328z"/>
<path style="fill:#939392; stroke:none;" d="M800.667 328.333L801.333 328.667L800.667 328.333M912.667 328.333L913.333 328.667L912.667 328.333z"/>
<path style="fill:#5b5b5a; stroke:none;" d="M914.667 328.333L915.333 328.667L914.667 328.333M943.667 328.333L944.333 328.667L943.667 328.333z"/>
<path style="fill:#939392; stroke:none;" d="M945.667 328.333L946.333 328.667L945.667 328.333M1027.67 328.333L1028.33 328.667L1027.67 328.333z"/>
<path style="fill:#5b5b5a; stroke:none;" d="M1029 328L1030 329L1029 328M1058 328L1059 329L1058 328z"/>
<path style="fill:#939392; stroke:none;" d="M1059.67 328.333L1060.33 328.667L1059.67 328.333M1380.67 328.333L1381.33 328.667L1380.67 328.333z"/>
<path style="fill:#5b5b5a; stroke:none;" d="M1382.67 328.333L1383.33 328.667L1382.67 328.333M1400.67 328.333L1401.33 328.667L1400.67 328.333z"/>
<path style="fill:#939392; stroke:none;" d="M1402.67 328.333L1403.33 328.667L1402.67 328.333M771 329L771 330L776 330L771 329z"/>
<path style="fill:#5b5b5a; stroke:none;" d="M776 329L776 330L784 330L776 329M786 329L786 330L792 330L786 329z"/>
<path style="fill:#939392; stroke:none;" d="M792 329L792 330L796 330L792 329M918 329L918 330L922 330L918 329z"/>
<path style="fill:#5b5b5a; stroke:none;" d="M922 329L922 330L928 330L922 329M931 329L931 330L936 330L931 329z"/>
<path style="fill:#939392; stroke:none;" d="M936 329L936 330L940 330L936 329M1033 329L1033 330L1037 330L1033 329z"/>
<path style="fill:#5b5b5a; stroke:none;" d="M1037 329L1037 330L1042 330L1037 329M1044 329L1044 330L1051 330L1044 329z"/>
<path style="fill:#939392; stroke:none;" d="M1051 329L1051 330L1055 330L1051 329M1388 329L1388 330L1396 330L1388 329z"/>
</svg>
